0, 0, Header, 1, 7, 384
1, 0, Start_track
1, 0, Title_t, "London Bridge"
1, 0, Copyright_t, "Copyright \251 1996 by Diversified Software Research"
1, 0, Text_t, "Keyboards: Brent Bailey\012"
1, 0, Text_t, "Drums/Perscussion: Bill Basham\012"
1, 0, SMPTE_offset, 96, 0, 3, 0, 0
1, 0, MIDI_port, 0
1, 0, System_exclusive, 05, 7E, 7F, 09, 01, F7
1, 0, MIDI_port, 0
1, 0, Time_signature, 4, 2, 24, 8
1, 0, Key_signature, 0, "major"
1, 0, Tempo, 600000
1, 0, End_track
2, 0, Start_track
2, 0, MIDI_port, 0
2, 0, Title_t, "Melody 1"
2, 0, Control_c, 0, 93, 21
2, 0, Control_c, 0, 91, 22
2, 0, Pitch_bend_c, 0, 8110
2, 386, Program_c, 0, 58
2, 387, Control_c, 0, 7, 127
2, 387, Control_c, 0, 10, 77
2, 1539, Note_on_c, 0, 67, 106
2, 1879, Note_on_c, 0, 67, 0
2, 1934, Note_on_c, 0, 69, 106
2, 2016, Note_on_c, 0, 69, 0
2, 2042, Note_on_c, 0, 67, 106
2, 2193, Note_on_c, 0, 67, 0
2, 2244, Note_on_c, 0, 65, 107
2, 2370, Note_on_c, 0, 65, 0
2, 2464, Note_on_c, 0, 64, 107
2, 2647, Note_on_c, 0, 64, 0
2, 2692, Note_on_c, 0, 65, 107
2, 2839, Note_on_c, 0, 65, 0
2, 2933, Note_on_c, 0, 67, 106
2, 3390, Note_on_c, 0, 67, 0
2, 3422, Note_on_c, 0, 62, 108
2, 3834, Note_on_c, 0, 62, 0
2, 3876, Note_on_c, 0, 67, 106
2, 4307, Note_on_c, 0, 67, 0
2, 4324, Note_on_c, 0, 64, 107
2, 4512, Note_on_c, 0, 64, 0
2, 4556, Note_on_c, 0, 60, 109
2, 5040, Note_on_c, 0, 60, 0
2, 5290, Note_on_c, 0, 55, 106
2, 5581, Note_on_c, 0, 55, 0
2, 5664, Note_on_c, 0, 57, 106
2, 5744, Note_on_c, 0, 57, 0
2, 5760, Note_on_c, 0, 55, 106
2, 5916, Note_on_c, 0, 55, 0
2, 5966, Note_on_c, 0, 53, 107
2, 6131, Note_on_c, 0, 53, 0
2, 6185, Note_on_c, 0, 52, 107
2, 6394, Note_on_c, 0, 52, 0
2, 6426, Note_on_c, 0, 53, 107
2, 6605, Note_on_c, 0, 53, 0
2, 6663, Note_on_c, 0, 55, 106
2, 7107, Note_on_c, 0, 55, 0
2, 7123, Note_on_c, 0, 50, 108
2, 7351, Note_on_c, 0, 52, 107
2, 7369, Note_on_c, 0, 50, 0
2, 7497, Note_on_c, 0, 52, 0
2, 7612, Note_on_c, 0, 53, 107
2, 8013, Note_on_c, 0, 53, 0
2, 8076, Note_on_c, 0, 52, 107
2, 8326, Note_on_c, 0, 53, 107
2, 8348, Note_on_c, 0, 52, 0
2, 8466, Note_on_c, 0, 53, 0
2, 8553, Note_on_c, 0, 55, 106
2, 8940, Note_on_c, 0, 55, 0
2, 9001, Note_on_c, 0, 55, 106
2, 9362, Note_on_c, 0, 55, 0
2, 9375, Note_on_c, 0, 57, 106
2, 9464, Note_on_c, 0, 55, 106
2, 9477, Note_on_c, 0, 57, 0
2, 9663, Note_on_c, 0, 55, 0
2, 9691, Note_on_c, 0, 53, 107
2, 9861, Note_on_c, 0, 53, 0
2, 9916, Note_on_c, 0, 52, 107
2, 10159, Note_on_c, 0, 53, 107
2, 10166, Note_on_c, 0, 52, 0
2, 10341, Note_on_c, 0, 53, 0
2, 10385, Note_on_c, 0, 55, 106
2, 10819, Note_on_c, 0, 55, 0
2, 10853, Note_on_c, 0, 50, 108
2, 11259, Note_on_c, 0, 50, 0
2, 11321, Note_on_c, 0, 55, 106
2, 11752, Note_on_c, 0, 55, 0
2, 11788, Note_on_c, 0, 52, 107
2, 11999, Note_on_c, 0, 52, 0
2, 12021, Note_on_c, 0, 48, 109
2, 12577, Note_on_c, 0, 48, 0
2, 12737, Note_on_c, 0, 43, 106
2, 13112, Note_on_c, 0, 45, 106
2, 13115, Note_on_c, 0, 43, 0
2, 13196, Note_on_c, 0, 43, 106
2, 13212, Note_on_c, 0, 45, 0
2, 13400, Note_on_c, 0, 43, 0
2, 13432, Note_on_c, 0, 41, 107
2, 13612, Note_on_c, 0, 41, 0
2, 13656, Note_on_c, 0, 40, 107
2, 13887, Note_on_c, 0, 41, 107
2, 13902, Note_on_c, 0, 40, 0
2, 14065, Note_on_c, 0, 41, 0
2, 14120, Note_on_c, 0, 43, 106
2, 14558, Note_on_c, 0, 43, 0
2, 14587, Note_on_c, 0, 38, 108
2, 14815, Note_on_c, 0, 40, 107
2, 14827, Note_on_c, 0, 38, 0
2, 15003, Note_on_c, 0, 40, 0
2, 15041, Note_on_c, 0, 41, 107
2, 15486, Note_on_c, 0, 41, 0
2, 15515, Note_on_c, 0, 40, 107
2, 15742, Note_on_c, 0, 41, 107
2, 15758, Note_on_c, 0, 40, 0
2, 15937, Note_on_c, 0, 41, 0
2, 15982, Note_on_c, 0, 43, 106
2, 16411, Note_on_c, 0, 43, 0
2, 16462, Note_on_c, 0, 43, 106
2, 16833, Note_on_c, 0, 43, 0
2, 16849, Note_on_c, 0, 45, 106
2, 16938, Note_on_c, 0, 43, 106
2, 16955, Note_on_c, 0, 45, 0
2, 17124, Note_on_c, 0, 43, 0
2, 17150, Note_on_c, 0, 41, 107
2, 17329, Note_on_c, 0, 41, 0
2, 17376, Note_on_c, 0, 40, 107
2, 17623, Note_on_c, 0, 41, 107
2, 17639, Note_on_c, 0, 40, 0
2, 17824, Note_on_c, 0, 41, 0
2, 17847, Note_on_c, 0, 43, 106
2, 18279, Note_on_c, 0, 43, 0
2, 18316, Note_on_c, 0, 38, 108
2, 18750, Note_on_c, 0, 38, 0
2, 18775, Note_on_c, 0, 43, 106
2, 19187, Note_on_c, 0, 43, 0
2, 19221, Note_on_c, 0, 40, 107
2, 19451, Note_on_c, 0, 40, 0
2, 19473, Note_on_c, 0, 36, 109
2, 19991, Note_on_c, 0, 36, 0
2, 20190, Note_on_c, 0, 31, 106
2, 20547, Note_on_c, 0, 31, 0
2, 20563, Note_on_c, 0, 33, 106
2, 20649, Note_on_c, 0, 31, 106
2, 20662, Note_on_c, 0, 33, 0
2, 20848, Note_on_c, 0, 31, 0
2, 20865, Note_on_c, 0, 29, 107
2, 21043, Note_on_c, 0, 29, 0
2, 21101, Note_on_c, 0, 28, 107
2, 21340, Note_on_c, 0, 29, 107
2, 21366, Note_on_c, 0, 28, 0
2, 21536, Note_on_c, 0, 29, 0
2, 21562, Note_on_c, 0, 31, 106
2, 21978, Note_on_c, 0, 31, 0
2, 22038, Note_on_c, 0, 26, 108
2, 22285, Note_on_c, 0, 28, 107
2, 22300, Note_on_c, 0, 26, 0
2, 22483, Note_on_c, 0, 28, 0
2, 22503, Note_on_c, 0, 29, 107
2, 22912, Note_on_c, 0, 29, 0
2, 22959, Note_on_c, 0, 28, 107
2, 23208, Note_on_c, 0, 29, 107
2, 23225, Note_on_c, 0, 28, 0
2, 23407, Note_on_c, 0, 29, 0
2, 23439, Note_on_c, 0, 31, 106
2, 23846, Note_on_c, 0, 31, 0
2, 23913, Note_on_c, 0, 31, 106
2, 24239, Note_on_c, 0, 31, 0
2, 24271, Note_on_c, 0, 33, 106
2, 24361, Note_on_c, 0, 31, 106
2, 24367, Note_on_c, 0, 33, 0
2, 24530, Note_on_c, 0, 31, 0
2, 24568, Note_on_c, 0, 29, 107
2, 24754, Note_on_c, 0, 29, 0
2, 24807, Note_on_c, 0, 28, 107
2, 25055, Note_on_c, 0, 29, 107
2, 25078, Note_on_c, 0, 28, 0
2, 25238, Note_on_c, 0, 29, 0
2, 25280, Note_on_c, 0, 31, 106
2, 25720, Note_on_c, 0, 31, 0
2, 25751, Note_on_c, 0, 26, 108
2, 26181, Note_on_c, 0, 26, 0
2, 26216, Note_on_c, 0, 31, 106
2, 26642, Note_on_c, 0, 31, 0
2, 26680, Note_on_c, 0, 28, 107
2, 26894, Note_on_c, 0, 28, 0
2, 26908, Note_on_c, 0, 24, 109
2, 27381, Note_on_c, 0, 24, 0
2, 28342, Control_c, 0, 127, 0
2, 28352, Control_c, 0, 64, 0
2, 28353, Control_c, 0, 10, 64
2, 28353, Pitch_bend_c, 0, 8192
2, 28353, Control_c, 0, 121, 0
2, 28353, End_track
3, 0, Start_track
3, 0, MIDI_port, 0
3, 0, Title_t, "Melody 2"
3, 0, Control_c, 1, 93, 21
3, 0, Control_c, 1, 91, 22
3, 0, Pitch_bend_c, 1, 8274
3, 391, Program_c, 1, 59
3, 392, Control_c, 1, 7, 127
3, 392, Control_c, 1, 10, 55
3, 1537, Note_on_c, 1, 67, 112
3, 1877, Note_on_c, 1, 67, 0
3, 1931, Note_on_c, 1, 69, 112
3, 2013, Note_on_c, 1, 69, 0
3, 2040, Note_on_c, 1, 67, 112
3, 2191, Note_on_c, 1, 67, 0
3, 2242, Note_on_c, 1, 65, 111
3, 2368, Note_on_c, 1, 65, 0
3, 2463, Note_on_c, 1, 64, 111
3, 2646, Note_on_c, 1, 64, 0
3, 2690, Note_on_c, 1, 65, 111
3, 2837, Note_on_c, 1, 65, 0
3, 2931, Note_on_c, 1, 67, 112
3, 3388, Note_on_c, 1, 67, 0
3, 3421, Note_on_c, 1, 62, 110
3, 3833, Note_on_c, 1, 62, 0
3, 3874, Note_on_c, 1, 67, 112
3, 4305, Note_on_c, 1, 67, 0
3, 4323, Note_on_c, 1, 64, 111
3, 4511, Note_on_c, 1, 64, 0
3, 4556, Note_on_c, 1, 60, 109
3, 5040, Note_on_c, 1, 60, 0
3, 5288, Note_on_c, 1, 67, 112
3, 5579, Note_on_c, 1, 67, 0
3, 5661, Note_on_c, 1, 69, 112
3, 5741, Note_on_c, 1, 69, 0
3, 5758, Note_on_c, 1, 67, 112
3, 5914, Note_on_c, 1, 67, 0
3, 5964, Note_on_c, 1, 65, 111
3, 6129, Note_on_c, 1, 65, 0
3, 6184, Note_on_c, 1, 64, 111
3, 6393, Note_on_c, 1, 64, 0
3, 6424, Note_on_c, 1, 65, 111
3, 6603, Note_on_c, 1, 65, 0
3, 6661, Note_on_c, 1, 67, 112
3, 7105, Note_on_c, 1, 67, 0
3, 7122, Note_on_c, 1, 62, 110
3, 7350, Note_on_c, 1, 64, 111
3, 7368, Note_on_c, 1, 62, 0
3, 7496, Note_on_c, 1, 64, 0
3, 7610, Note_on_c, 1, 65, 111
3, 8011, Note_on_c, 1, 65, 0
3, 8075, Note_on_c, 1, 64, 111
3, 8324, Note_on_c, 1, 65, 111
3, 8347, Note_on_c, 1, 64, 0
3, 8464, Note_on_c, 1, 65, 0
3, 8551, Note_on_c, 1, 67, 112
3, 8938, Note_on_c, 1, 67, 0
3, 8999, Note_on_c, 1, 67, 112
3, 9360, Note_on_c, 1, 67, 0
3, 9372, Note_on_c, 1, 69, 112
3, 9462, Note_on_c, 1, 67, 112
3, 9474, Note_on_c, 1, 69, 0
3, 9661, Note_on_c, 1, 67, 0
3, 9689, Note_on_c, 1, 65, 111
3, 9859, Note_on_c, 1, 65, 0
3, 9915, Note_on_c, 1, 64, 111
3, 10157, Note_on_c, 1, 65, 111
3, 10165, Note_on_c, 1, 64, 0
3, 10339, Note_on_c, 1, 65, 0
3, 10383, Note_on_c, 1, 67, 112
3, 10817, Note_on_c, 1, 67, 0
3, 10852, Note_on_c, 1, 62, 110
3, 11258, Note_on_c, 1, 62, 0
3, 11319, Note_on_c, 1, 67, 112
3, 11750, Note_on_c, 1, 67, 0
3, 11787, Note_on_c, 1, 64, 111
3, 11998, Note_on_c, 1, 64, 0
3, 12021, Note_on_c, 1, 60, 109
3, 12577, Note_on_c, 1, 60, 0
3, 12735, Note_on_c, 1, 55, 112
3, 13109, Note_on_c, 1, 57, 112
3, 13113, Note_on_c, 1, 55, 0
3, 13194, Note_on_c, 1, 55, 112
3, 13209, Note_on_c, 1, 57, 0
3, 13398, Note_on_c, 1, 55, 0
3, 13430, Note_on_c, 1, 53, 111
3, 13610, Note_on_c, 1, 53, 0
3, 13655, Note_on_c, 1, 52, 111
3, 13885, Note_on_c, 1, 53, 111
3, 13901, Note_on_c, 1, 52, 0
3, 14063, Note_on_c, 1, 53, 0
3, 14118, Note_on_c, 1, 55, 112
3, 14556, Note_on_c, 1, 55, 0
3, 14586, Note_on_c, 1, 50, 110
3, 14814, Note_on_c, 1, 52, 111
3, 14826, Note_on_c, 1, 50, 0
3, 15002, Note_on_c, 1, 52, 0
3, 15039, Note_on_c, 1, 53, 111
3, 15484, Note_on_c, 1, 53, 0
3, 15514, Note_on_c, 1, 52, 111
3, 15740, Note_on_c, 1, 53, 111
3, 15757, Note_on_c, 1, 52, 0
3, 15935, Note_on_c, 1, 53, 0
3, 15980, Note_on_c, 1, 55, 112
3, 16409, Note_on_c, 1, 55, 0
3, 16460, Note_on_c, 1, 55, 112
3, 16831, Note_on_c, 1, 55, 0
3, 16846, Note_on_c, 1, 57, 112
3, 16936, Note_on_c, 1, 55, 112
3, 16952, Note_on_c, 1, 57, 0
3, 17122, Note_on_c, 1, 55, 0
3, 17148, Note_on_c, 1, 53, 111
3, 17327, Note_on_c, 1, 53, 0
3, 17375, Note_on_c, 1, 52, 111
3, 17621, Note_on_c, 1, 53, 111
3, 17638, Note_on_c, 1, 52, 0
3, 17822, Note_on_c, 1, 53, 0
3, 17845, Note_on_c, 1, 55, 112
3, 18277, Note_on_c, 1, 55, 0
3, 18315, Note_on_c, 1, 50, 110
3, 18749, Note_on_c, 1, 50, 0
3, 18773, Note_on_c, 1, 55, 112
3, 19185, Note_on_c, 1, 55, 0
3, 19220, Note_on_c, 1, 52, 111
3, 19450, Note_on_c, 1, 52, 0
3, 19473, Note_on_c, 1, 48, 109
3, 19991, Note_on_c, 1, 48, 0
3, 20188, Note_on_c, 1, 43, 112
3, 20545, Note_on_c, 1, 43, 0
3, 20560, Note_on_c, 1, 45, 112
3, 20647, Note_on_c, 1, 43, 112
3, 20659, Note_on_c, 1, 45, 0
3, 20846, Note_on_c, 1, 43, 0
3, 20863, Note_on_c, 1, 41, 111
3, 21041, Note_on_c, 1, 41, 0
3, 21100, Note_on_c, 1, 40, 111
3, 21338, Note_on_c, 1, 41, 111
3, 21365, Note_on_c, 1, 40, 0
3, 21534, Note_on_c, 1, 41, 0
3, 21560, Note_on_c, 1, 43, 112
3, 21976, Note_on_c, 1, 43, 0
3, 22037, Note_on_c, 1, 38, 110
3, 22284, Note_on_c, 1, 40, 111
3, 22299, Note_on_c, 1, 38, 0
3, 22482, Note_on_c, 1, 40, 0
3, 22501, Note_on_c, 1, 41, 111
3, 22910, Note_on_c, 1, 41, 0
3, 22958, Note_on_c, 1, 40, 111
3, 23206, Note_on_c, 1, 41, 111
3, 23224, Note_on_c, 1, 40, 0
3, 23405, Note_on_c, 1, 41, 0
3, 23437, Note_on_c, 1, 43, 112
3, 23844, Note_on_c, 1, 43, 0
3, 23911, Note_on_c, 1, 43, 112
3, 24237, Note_on_c, 1, 43, 0
3, 24268, Note_on_c, 1, 45, 112
3, 24359, Note_on_c, 1, 43, 112
3, 24364, Note_on_c, 1, 45, 0
3, 24528, Note_on_c, 1, 43, 0
3, 24566, Note_on_c, 1, 41, 111
3, 24752, Note_on_c, 1, 41, 0
3, 24806, Note_on_c, 1, 40, 111
3, 25053, Note_on_c, 1, 41, 111
3, 25077, Note_on_c, 1, 40, 0
3, 25236, Note_on_c, 1, 41, 0
3, 25278, Note_on_c, 1, 43, 112
3, 25718, Note_on_c, 1, 43, 0
3, 25750, Note_on_c, 1, 38, 110
3, 26180, Note_on_c, 1, 38, 0
3, 26214, Note_on_c, 1, 43, 112
3, 26640, Note_on_c, 1, 43, 0
3, 26679, Note_on_c, 1, 40, 111
3, 26893, Note_on_c, 1, 40, 0
3, 26908, Note_on_c, 1, 36, 109
3, 27381, Note_on_c, 1, 36, 0
3, 28342, Control_c, 1, 127, 0
3, 28352, Control_c, 1, 64, 0
3, 28353, Control_c, 1, 10, 64
3, 28353, Pitch_bend_c, 1, 8192
3, 28353, Control_c, 1, 121, 0
3, 28353, End_track
4, 0, Start_track
4, 0, MIDI_port, 0
4, 0, Title_t, "Piano Left"
4, 0, Control_c, 2, 93, 21
4, 0, Control_c, 2, 91, 22
4, 0, Pitch_bend_c, 2, 8110
4, 396, Program_c, 2, 0
4, 397, Control_c, 2, 7, 127
4, 397, Control_c, 2, 10, 0
4, 1553, Note_on_c, 2, 76, 81
4, 1554, Note_on_c, 2, 72, 80
4, 1557, Note_on_c, 2, 67, 79
4, 1559, Note_on_c, 2, 60, 74
4, 1566, Note_on_c, 2, 55, 78
4, 1567, Note_on_c, 2, 64, 72
4, 1809, Control_c, 2, 64, 127
4, 2033, Note_on_c, 2, 55, 0
4, 2046, Note_on_c, 2, 67, 0
4, 2048, Note_on_c, 2, 76, 0
4, 2065, Note_on_c, 2, 64, 0
4, 2065, Note_on_c, 2, 72, 0
4, 2090, Note_on_c, 2, 60, 0
4, 2215, Note_on_c, 2, 77, 70
4, 2216, Note_on_c, 2, 72, 76
4, 2216, Note_on_c, 2, 69, 71
4, 2218, Note_on_c, 2, 57, 60
4, 2221, Note_on_c, 2, 60, 46
4, 2225, Note_on_c, 2, 65, 44
4, 2242, Control_c, 2, 64, 0
4, 2336, Note_on_c, 2, 60, 0
4, 2337, Note_on_c, 2, 69, 0
4, 2343, Note_on_c, 2, 65, 0
4, 2349, Note_on_c, 2, 72, 0
4, 2356, Note_on_c, 2, 77, 0
4, 2362, Note_on_c, 2, 57, 0
4, 2449, Note_on_c, 2, 76, 79
4, 2449, Note_on_c, 2, 72, 78
4, 2452, Note_on_c, 2, 67, 75
4, 2455, Note_on_c, 2, 60, 60
4, 2462, Note_on_c, 2, 64, 43
4, 2462, Note_on_c, 2, 55, 70
4, 2720, Control_c, 2, 64, 127
4, 2791, Note_on_c, 2, 67, 0
4, 2792, Note_on_c, 2, 72, 0
4, 2816, Note_on_c, 2, 55, 0
4, 2829, Note_on_c, 2, 60, 0
4, 2836, Note_on_c, 2, 64, 0
4, 2924, Note_on_c, 2, 72, 76
4, 2925, Note_on_c, 2, 67, 77
4, 2929, Note_on_c, 2, 60, 64
4, 2932, Note_on_c, 2, 64, 56
4, 2933, Note_on_c, 2, 76, 0
4, 2935, Note_on_c, 2, 55, 58
4, 3098, Note_on_c, 2, 67, 0
4, 3123, Note_on_c, 2, 72, 0
4, 3127, Note_on_c, 2, 60, 0
4, 3134, Note_on_c, 2, 64, 0
4, 3136, Note_on_c, 2, 55, 0
4, 3415, Note_on_c, 2, 79, 74
4, 3415, Note_on_c, 2, 59, 70
4, 3418, Note_on_c, 2, 74, 75
4, 3419, Note_on_c, 2, 71, 76
4, 3422, Note_on_c, 2, 67, 73
4, 3423, Note_on_c, 2, 53, 63
4, 3423, Note_on_c, 2, 62, 59
4, 3424, Note_on_c, 2, 55, 66
4, 3437, Control_c, 2, 64, 0
4, 3680, Control_c, 2, 64, 127
4, 3761, Note_on_c, 2, 79, 0
4, 3767, Note_on_c, 2, 67, 0
4, 3771, Note_on_c, 2, 53, 0
4, 3776, Note_on_c, 2, 74, 0
4, 3783, Note_on_c, 2, 71, 0
4, 3789, Note_on_c, 2, 62, 0
4, 3793, Note_on_c, 2, 59, 0
4, 3799, Note_on_c, 2, 55, 0
4, 3882, Note_on_c, 2, 71, 76
4, 3882, Note_on_c, 2, 79, 72
4, 3885, Note_on_c, 2, 74, 71
4, 3886, Note_on_c, 2, 67, 75
4, 3889, Note_on_c, 2, 59, 66
4, 3889, Note_on_c, 2, 55, 62
4, 3891, Note_on_c, 2, 53, 53
4, 3895, Note_on_c, 2, 62, 65
4, 4062, Note_on_c, 2, 62, 0
4, 4068, Note_on_c, 2, 59, 0
4, 4074, Note_on_c, 2, 55, 0
4, 4081, Note_on_c, 2, 53, 0
4, 4106, Note_on_c, 2, 71, 0
4, 4132, Note_on_c, 2, 67, 0
4, 4151, Note_on_c, 2, 79, 0
4, 4164, Note_on_c, 2, 74, 0
4, 4301, Control_c, 2, 64, 0
4, 4320, Note_on_c, 2, 76, 71
4, 4321, Note_on_c, 2, 72, 74
4, 4324, Note_on_c, 2, 67, 73
4, 4325, Note_on_c, 2, 55, 62
4, 4330, Note_on_c, 2, 60, 54
4, 4330, Note_on_c, 2, 52, 55
4, 4388, Note_on_c, 2, 72, 0
4, 4394, Note_on_c, 2, 67, 0
4, 4407, Note_on_c, 2, 76, 0
4, 4410, Note_on_c, 2, 52, 0
4, 4411, Note_on_c, 2, 60, 0
4, 4414, Note_on_c, 2, 55, 0
4, 4551, Note_on_c, 2, 76, 77
4, 4552, Note_on_c, 2, 67, 77
4, 4554, Note_on_c, 2, 52, 65
4, 4554, Note_on_c, 2, 72, 80
4, 4557, Note_on_c, 2, 55, 70
4, 4558, Note_on_c, 2, 60, 62
4, 4817, Control_c, 2, 64, 127
4, 4967, Note_on_c, 2, 67, 0
4, 4976, Note_on_c, 2, 72, 0
4, 4982, Note_on_c, 2, 55, 0
4, 4986, Note_on_c, 2, 52, 0
4, 4992, Note_on_c, 2, 76, 0
4, 5011, Note_on_c, 2, 60, 0
4, 5267, Note_on_c, 2, 72, 37
4, 5270, Note_on_c, 2, 60, 58
4, 5271, Note_on_c, 2, 67, 45
4, 5274, Note_on_c, 2, 76, 36
4, 5277, Note_on_c, 2, 55, 56
4, 5278, Note_on_c, 2, 64, 52
4, 5278, Control_c, 2, 64, 0
4, 5341, Note_on_c, 2, 67, 0
4, 5342, Note_on_c, 2, 72, 0
4, 5347, Note_on_c, 2, 76, 0
4, 5502, Note_on_c, 2, 72, 46
4, 5504, Note_on_c, 2, 76, 39
4, 5504, Note_on_c, 2, 67, 49
4, 5575, Note_on_c, 2, 67, 0
4, 5575, Note_on_c, 2, 72, 0
4, 5587, Note_on_c, 2, 76, 0
4, 5616, Note_on_c, 2, 72, 50
4, 5617, Note_on_c, 2, 67, 36
4, 5619, Note_on_c, 2, 76, 41
4, 5654, Note_on_c, 2, 55, 0
4, 5667, Note_on_c, 2, 64, 0
4, 5668, Note_on_c, 2, 60, 0
4, 5690, Note_on_c, 2, 72, 0
4, 5693, Note_on_c, 2, 76, 0
4, 5694, Note_on_c, 2, 67, 0
4, 5712, Note_on_c, 2, 67, 22
4, 5715, Note_on_c, 2, 72, 38
4, 5716, Note_on_c, 2, 76, 38
4, 5717, Note_on_c, 2, 60, 54
4, 5718, Note_on_c, 2, 64, 48
4, 5722, Note_on_c, 2, 55, 56
4, 5801, Note_on_c, 2, 72, 0
4, 5805, Note_on_c, 2, 67, 0
4, 5811, Note_on_c, 2, 76, 0
4, 5961, Note_on_c, 2, 72, 48
4, 5962, Note_on_c, 2, 76, 39
4, 5965, Note_on_c, 2, 67, 49
4, 6025, Note_on_c, 2, 67, 0
4, 6026, Note_on_c, 2, 72, 0
4, 6035, Note_on_c, 2, 76, 0
4, 6157, Note_on_c, 2, 55, 0
4, 6166, Note_on_c, 2, 64, 0
4, 6186, Note_on_c, 2, 64, 33
4, 6191, Note_on_c, 2, 55, 46
4, 6430, Note_on_c, 2, 72, 50
4, 6432, Note_on_c, 2, 67, 57
4, 6433, Note_on_c, 2, 76, 47
4, 6505, Note_on_c, 2, 72, 0
4, 6509, Note_on_c, 2, 67, 0
4, 6511, Note_on_c, 2, 76, 0
4, 6543, Note_on_c, 2, 72, 60
4, 6545, Note_on_c, 2, 76, 57
4, 6547, Note_on_c, 2, 67, 41
4, 6605, Note_on_c, 2, 55, 0
4, 6618, Note_on_c, 2, 72, 0
4, 6618, Note_on_c, 2, 60, 0
4, 6619, Note_on_c, 2, 64, 0
4, 6627, Note_on_c, 2, 67, 0
4, 6631, Note_on_c, 2, 76, 0
4, 6650, Note_on_c, 2, 67, 39
4, 6652, Note_on_c, 2, 76, 45
4, 6654, Note_on_c, 2, 72, 58
4, 6659, Note_on_c, 2, 60, 56
4, 6660, Note_on_c, 2, 64, 43
4, 6660, Note_on_c, 2, 55, 54
4, 6729, Note_on_c, 2, 72, 0
4, 6733, Note_on_c, 2, 67, 0
4, 6743, Note_on_c, 2, 76, 0
4, 6759, Control_c, 2, 64, 127
4, 6880, Note_on_c, 2, 72, 52
4, 6883, Note_on_c, 2, 76, 51
4, 6887, Note_on_c, 2, 67, 59
4, 6893, Note_on_c, 2, 60, 0
4, 6902, Note_on_c, 2, 55, 0
4, 6906, Note_on_c, 2, 64, 0
4, 6957, Note_on_c, 2, 67, 0
4, 6963, Note_on_c, 2, 72, 0
4, 6970, Note_on_c, 2, 76, 0
4, 7111, Note_on_c, 2, 59, 52
4, 7113, Note_on_c, 2, 53, 44
4, 7114, Note_on_c, 2, 62, 49
4, 7114, Note_on_c, 2, 55, 58
4, 7132, Control_c, 2, 64, 0
4, 7341, Note_on_c, 2, 71, 62
4, 7341, Note_on_c, 2, 77, 50
4, 7342, Note_on_c, 2, 67, 57
4, 7407, Note_on_c, 2, 67, 0
4, 7411, Note_on_c, 2, 71, 0
4, 7424, Note_on_c, 2, 77, 0
4, 7456, Note_on_c, 2, 71, 64
4, 7456, Note_on_c, 2, 77, 48
4, 7457, Note_on_c, 2, 67, 47
4, 7475, Note_on_c, 2, 59, 0
4, 7478, Note_on_c, 2, 53, 0
4, 7479, Note_on_c, 2, 55, 0
4, 7482, Note_on_c, 2, 62, 0
4, 7516, Note_on_c, 2, 67, 0
4, 7520, Note_on_c, 2, 71, 0
4, 7527, Note_on_c, 2, 77, 0
4, 7565, Note_on_c, 2, 67, 42
4, 7565, Note_on_c, 2, 71, 62
4, 7567, Note_on_c, 2, 77, 39
4, 7582, Note_on_c, 2, 59, 60
4, 7584, Note_on_c, 2, 55, 50
4, 7584, Note_on_c, 2, 53, 42
4, 7585, Note_on_c, 2, 62, 47
4, 7623, Note_on_c, 2, 77, 0
4, 7625, Note_on_c, 2, 71, 0
4, 7626, Note_on_c, 2, 67, 0
4, 7817, Note_on_c, 2, 71, 62
4, 7818, Note_on_c, 2, 77, 38
4, 7818, Note_on_c, 2, 67, 53
4, 7840, Control_c, 2, 64, 127
4, 7875, Note_on_c, 2, 55, 0
4, 7882, Note_on_c, 2, 59, 0
4, 7887, Note_on_c, 2, 67, 0
4, 7894, Note_on_c, 2, 71, 0
4, 7895, Note_on_c, 2, 53, 0
4, 7911, Note_on_c, 2, 77, 0
4, 7919, Note_on_c, 2, 62, 0
4, 8060, Note_on_c, 2, 60, 58
4, 8061, Note_on_c, 2, 55, 45
4, 8067, Note_on_c, 2, 64, 50
4, 8088, Control_c, 2, 64, 0
4, 8287, Note_on_c, 2, 76, 49
4, 8288, Note_on_c, 2, 72, 60
4, 8291, Note_on_c, 2, 67, 65
4, 8364, Note_on_c, 2, 67, 0
4, 8365, Note_on_c, 2, 72, 0
4, 8370, Note_on_c, 2, 76, 0
4, 8406, Note_on_c, 2, 67, 47
4, 8410, Note_on_c, 2, 72, 68
4, 8410, Note_on_c, 2, 76, 67
4, 8415, Note_on_c, 2, 55, 0
4, 8441, Note_on_c, 2, 60, 0
4, 8444, Note_on_c, 2, 64, 0
4, 8476, Note_on_c, 2, 67, 0
4, 8477, Note_on_c, 2, 72, 0
4, 8486, Note_on_c, 2, 76, 0
4, 8521, Note_on_c, 2, 60, 52
4, 8524, Note_on_c, 2, 64, 43
4, 8527, Note_on_c, 2, 55, 50
4, 8531, Note_on_c, 2, 76, 63
4, 8532, Note_on_c, 2, 67, 45
4, 8534, Note_on_c, 2, 72, 66
4, 8585, Note_on_c, 2, 72, 0
4, 8588, Note_on_c, 2, 67, 0
4, 8589, Note_on_c, 2, 76, 0
4, 8771, Note_on_c, 2, 72, 66
4, 8771, Note_on_c, 2, 67, 67
4, 8772, Note_on_c, 2, 76, 59
4, 8806, Control_c, 2, 64, 127
4, 8831, Note_on_c, 2, 67, 0
4, 8838, Note_on_c, 2, 72, 0
4, 8847, Note_on_c, 2, 76, 0
4, 8879, Note_on_c, 2, 55, 0
4, 8892, Note_on_c, 2, 60, 0
4, 8902, Note_on_c, 2, 64, 0
4, 9007, Note_on_c, 2, 60, 68
4, 9011, Note_on_c, 2, 64, 60
4, 9011, Note_on_c, 2, 55, 68
4, 9240, Note_on_c, 2, 72, 54
4, 9247, Note_on_c, 2, 76, 53
4, 9248, Note_on_c, 2, 67, 49
4, 9302, Control_c, 2, 64, 0
4, 9308, Note_on_c, 2, 72, 0
4, 9311, Note_on_c, 2, 76, 0
4, 9312, Note_on_c, 2, 67, 0
4, 9330, Note_on_c, 2, 55, 0
4, 9334, Note_on_c, 2, 60, 0
4, 9343, Note_on_c, 2, 64, 0
4, 9356, Note_on_c, 2, 72, 66
4, 9359, Note_on_c, 2, 67, 45
4, 9359, Note_on_c, 2, 76, 63
4, 9417, Note_on_c, 2, 76, 0
4, 9417, Note_on_c, 2, 72, 0
4, 9420, Note_on_c, 2, 67, 0
4, 9452, Note_on_c, 2, 55, 43
4, 9453, Note_on_c, 2, 60, 48
4, 9455, Note_on_c, 2, 64, 39
4, 9457, Note_on_c, 2, 72, 62
4, 9457, Note_on_c, 2, 67, 40
4, 9458, Note_on_c, 2, 76, 59
4, 9519, Note_on_c, 2, 72, 0
4, 9523, Note_on_c, 2, 67, 0
4, 9523, Note_on_c, 2, 76, 0
4, 9690, Note_on_c, 2, 72, 56
4, 9690, Note_on_c, 2, 76, 41
4, 9692, Note_on_c, 2, 67, 57
4, 9752, Note_on_c, 2, 67, 0
4, 9754, Note_on_c, 2, 72, 0
4, 9763, Note_on_c, 2, 76, 0
4, 9788, Note_on_c, 2, 60, 0
4, 9791, Note_on_c, 2, 55, 0
4, 9797, Note_on_c, 2, 64, 0
4, 9923, Note_on_c, 2, 55, 54
4, 9923, Note_on_c, 2, 60, 62
4, 9925, Note_on_c, 2, 64, 50
4, 10149, Note_on_c, 2, 72, 62
4, 10151, Note_on_c, 2, 76, 57
4, 10153, Note_on_c, 2, 67, 63
4, 10182, Control_c, 2, 64, 127
4, 10217, Note_on_c, 2, 72, 0
4, 10220, Note_on_c, 2, 67, 0
4, 10225, Note_on_c, 2, 76, 0
4, 10262, Note_on_c, 2, 72, 60
4, 10264, Note_on_c, 2, 76, 59
4, 10266, Note_on_c, 2, 67, 40
4, 10277, Note_on_c, 2, 55, 0
4, 10281, Note_on_c, 2, 60, 0
4, 10296, Note_on_c, 2, 64, 0
4, 10328, Note_on_c, 2, 67, 0
4, 10330, Note_on_c, 2, 72, 0
4, 10332, Note_on_c, 2, 76, 0
4, 10380, Note_on_c, 2, 60, 56
4, 10381, Note_on_c, 2, 55, 50
4, 10383, Note_on_c, 2, 76, 61
4, 10385, Note_on_c, 2, 72, 62
4, 10386, Note_on_c, 2, 64, 42
4, 10386, Note_on_c, 2, 67, 49
4, 10444, Note_on_c, 2, 67, 0
4, 10450, Note_on_c, 2, 72, 0
4, 10454, Note_on_c, 2, 76, 0
4, 10601, Note_on_c, 2, 60, 0
4, 10604, Note_on_c, 2, 72, 60
4, 10607, Note_on_c, 2, 55, 0
4, 10607, Note_on_c, 2, 76, 55
4, 10609, Note_on_c, 2, 67, 63
4, 10615, Note_on_c, 2, 64, 0
4, 10671, Note_on_c, 2, 72, 0
4, 10671, Note_on_c, 2, 67, 0
4, 10680, Note_on_c, 2, 76, 0
4, 10825, Control_c, 2, 64, 0
4, 10840, Note_on_c, 2, 59, 60
4, 10842, Note_on_c, 2, 55, 60
4, 10842, Note_on_c, 2, 53, 51
4, 10844, Note_on_c, 2, 62, 55
4, 11071, Note_on_c, 2, 77, 58
4, 11071, Note_on_c, 2, 71, 68
4, 11072, Note_on_c, 2, 67, 61
4, 11131, Note_on_c, 2, 71, 0
4, 11135, Note_on_c, 2, 67, 0
4, 11154, Note_on_c, 2, 77, 0
4, 11186, Note_on_c, 2, 67, 59
4, 11186, Note_on_c, 2, 77, 62
4, 11189, Note_on_c, 2, 71, 72
4, 11240, Note_on_c, 2, 55, 0
4, 11241, Note_on_c, 2, 53, 0
4, 11244, Note_on_c, 2, 59, 0
4, 11246, Note_on_c, 2, 71, 0
4, 11247, Note_on_c, 2, 62, 0
4, 11248, Note_on_c, 2, 67, 0
4, 11266, Note_on_c, 2, 77, 0
4, 11295, Note_on_c, 2, 71, 70
4, 11295, Note_on_c, 2, 77, 50
4, 11298, Note_on_c, 2, 67, 47
4, 11310, Note_on_c, 2, 59, 62
4, 11314, Note_on_c, 2, 55, 52
4, 11314, Note_on_c, 2, 53, 44
4, 11315, Note_on_c, 2, 62, 51
4, 11355, Control_c, 2, 64, 127
4, 11365, Note_on_c, 2, 67, 0
4, 11368, Note_on_c, 2, 71, 0
4, 11372, Note_on_c, 2, 77, 0
4, 11538, Note_on_c, 2, 71, 62
4, 11541, Note_on_c, 2, 77, 56
4, 11542, Note_on_c, 2, 55, 0
4, 11546, Note_on_c, 2, 59, 0
4, 11546, Note_on_c, 2, 67, 65
4, 11548, Note_on_c, 2, 62, 0
4, 11557, Note_on_c, 2, 53, 0
4, 11618, Note_on_c, 2, 71, 0
4, 11621, Note_on_c, 2, 67, 0
4, 11643, Note_on_c, 2, 77, 0
4, 11756, Control_c, 2, 64, 0
4, 11771, Note_on_c, 2, 76, 69
4, 11775, Note_on_c, 2, 72, 70
4, 11778, Note_on_c, 2, 67, 71
4, 11782, Note_on_c, 2, 55, 56
4, 11788, Note_on_c, 2, 52, 43
4, 11790, Note_on_c, 2, 60, 48
4, 11832, Note_on_c, 2, 67, 0
4, 11833, Note_on_c, 2, 72, 0
4, 11845, Note_on_c, 2, 76, 0
4, 11854, Note_on_c, 2, 60, 0
4, 11858, Note_on_c, 2, 52, 0
4, 11861, Note_on_c, 2, 55, 0
4, 12012, Note_on_c, 2, 76, 75
4, 12015, Note_on_c, 2, 67, 79
4, 12015, Note_on_c, 2, 72, 82
4, 12018, Note_on_c, 2, 60, 64
4, 12018, Note_on_c, 2, 55, 72
4, 12019, Note_on_c, 2, 52, 63
4, 12296, Control_c, 2, 64, 127
4, 12449, Note_on_c, 2, 76, 0
4, 12453, Note_on_c, 2, 72, 0
4, 12462, Note_on_c, 2, 67, 0
4, 12479, Note_on_c, 2, 55, 0
4, 12488, Note_on_c, 2, 60, 0
4, 12501, Note_on_c, 2, 52, 0
4, 12741, Note_on_c, 2, 64, 88
4, 12741, Note_on_c, 2, 60, 82
4, 12748, Note_on_c, 2, 55, 78
4, 12750, Note_on_c, 2, 48, 74
4, 12751, Control_c, 2, 64, 0
4, 13185, Control_c, 2, 64, 127
4, 13281, Note_on_c, 2, 48, 0
4, 13288, Note_on_c, 2, 55, 0
4, 13307, Note_on_c, 2, 60, 0
4, 13326, Note_on_c, 2, 64, 0
4, 13397, Control_c, 2, 64, 0
4, 13420, Note_on_c, 2, 65, 86
4, 13421, Note_on_c, 2, 48, 64
4, 13421, Note_on_c, 2, 60, 80
4, 13422, Note_on_c, 2, 57, 66
4, 13563, Note_on_c, 2, 60, 0
4, 13580, Note_on_c, 2, 48, 0
4, 13589, Note_on_c, 2, 57, 0
4, 13590, Note_on_c, 2, 65, 0
4, 13646, Note_on_c, 2, 64, 86
4, 13650, Note_on_c, 2, 48, 64
4, 13650, Note_on_c, 2, 60, 78
4, 13653, Note_on_c, 2, 55, 70
4, 14113, Control_c, 2, 64, 127
4, 14229, Note_on_c, 2, 55, 0
4, 14229, Note_on_c, 2, 48, 0
4, 14245, Note_on_c, 2, 60, 0
4, 14257, Note_on_c, 2, 64, 0
4, 14350, Note_on_c, 2, 55, 60
4, 14353, Note_on_c, 2, 64, 86
4, 14354, Note_on_c, 2, 48, 54
4, 14354, Note_on_c, 2, 60, 76
4, 14466, Note_on_c, 2, 60, 0
4, 14468, Note_on_c, 2, 55, 0
4, 14475, Note_on_c, 2, 48, 0
4, 14497, Note_on_c, 2, 64, 0
4, 14581, Note_on_c, 2, 59, 80
4, 14582, Note_on_c, 2, 67, 87
4, 14583, Control_c, 2, 64, 0
4, 14590, Note_on_c, 2, 55, 60
4, 14593, Note_on_c, 2, 50, 64
4, 15067, Control_c, 2, 64, 127
4, 15163, Note_on_c, 2, 50, 0
4, 15172, Note_on_c, 2, 55, 0
4, 15176, Note_on_c, 2, 59, 0
4, 15189, Note_on_c, 2, 67, 0
4, 15287, Note_on_c, 2, 67, 87
4, 15291, Note_on_c, 2, 59, 76
4, 15294, Note_on_c, 2, 55, 62
4, 15295, Note_on_c, 2, 50, 72
4, 15434, Note_on_c, 2, 59, 0
4, 15441, Note_on_c, 2, 55, 0
4, 15447, Note_on_c, 2, 67, 0
4, 15460, Note_on_c, 2, 50, 0
4, 15509, Note_on_c, 2, 64, 84
4, 15512, Control_c, 2, 64, 0
4, 15512, Note_on_c, 2, 60, 74
4, 15518, Note_on_c, 2, 55, 54
4, 15519, Note_on_c, 2, 48, 70
4, 15982, Control_c, 2, 64, 127
4, 16113, Note_on_c, 2, 48, 0
4, 16119, Note_on_c, 2, 55, 0
4, 16123, Note_on_c, 2, 60, 0
4, 16151, Note_on_c, 2, 64, 0
4, 16202, Note_on_c, 2, 64, 86
4, 16206, Note_on_c, 2, 60, 74
4, 16209, Note_on_c, 2, 55, 66
4, 16213, Note_on_c, 2, 48, 60
4, 16328, Note_on_c, 2, 60, 0
4, 16334, Note_on_c, 2, 64, 0
4, 16334, Note_on_c, 2, 48, 0
4, 16343, Note_on_c, 2, 55, 0
4, 16424, Note_on_c, 2, 64, 90
4, 16426, Note_on_c, 2, 60, 78
4, 16439, Note_on_c, 2, 55, 72
4, 16443, Note_on_c, 2, 48, 74
4, 16458, Control_c, 2, 64, 0
4, 16910, Control_c, 2, 64, 127
4, 17022, Note_on_c, 2, 48, 0
4, 17028, Note_on_c, 2, 55, 0
4, 17044, Note_on_c, 2, 60, 0
4, 17073, Note_on_c, 2, 64, 0
4, 17137, Note_on_c, 2, 60, 74
4, 17137, Note_on_c, 2, 48, 52
4, 17139, Note_on_c, 2, 65, 84
4, 17141, Note_on_c, 2, 57, 68
4, 17290, Note_on_c, 2, 60, 0
4, 17300, Note_on_c, 2, 48, 0
4, 17306, Note_on_c, 2, 57, 0
4, 17322, Note_on_c, 2, 65, 0
4, 17364, Control_c, 2, 64, 0
4, 17374, Note_on_c, 2, 64, 88
4, 17375, Note_on_c, 2, 60, 76
4, 17377, Note_on_c, 2, 55, 66
4, 17380, Note_on_c, 2, 48, 54
4, 17825, Control_c, 2, 64, 127
4, 17940, Note_on_c, 2, 48, 0
4, 17950, Note_on_c, 2, 55, 0
4, 17950, Note_on_c, 2, 60, 0
4, 17971, Note_on_c, 2, 64, 0
4, 18065, Note_on_c, 2, 55, 58
4, 18065, Note_on_c, 2, 64, 86
4, 18067, Note_on_c, 2, 60, 72
4, 18069, Note_on_c, 2, 48, 58
4, 18142, Note_on_c, 2, 55, 0
4, 18148, Note_on_c, 2, 60, 0
4, 18157, Note_on_c, 2, 48, 0
4, 18161, Note_on_c, 2, 64, 0
4, 18298, Note_on_c, 2, 59, 78
4, 18302, Note_on_c, 2, 67, 89
4, 18304, Control_c, 2, 64, 0
4, 18308, Note_on_c, 2, 55, 48
4, 18314, Note_on_c, 2, 47, 79
4, 18586, Control_c, 2, 64, 127
4, 18874, Note_on_c, 2, 47, 0
4, 18887, Note_on_c, 2, 55, 0
4, 18897, Note_on_c, 2, 59, 0
4, 18912, Note_on_c, 2, 67, 0
4, 19006, Note_on_c, 2, 47, 69
4, 19006, Note_on_c, 2, 55, 56
4, 19007, Note_on_c, 2, 67, 83
4, 19007, Note_on_c, 2, 59, 78
4, 19076, Note_on_c, 2, 47, 0
4, 19098, Note_on_c, 2, 55, 0
4, 19111, Note_on_c, 2, 59, 0
4, 19131, Note_on_c, 2, 67, 0
4, 19219, Control_c, 2, 64, 0
4, 19226, Note_on_c, 2, 64, 84
4, 19230, Note_on_c, 2, 60, 70
4, 19242, Note_on_c, 2, 48, 48
4, 19245, Note_on_c, 2, 55, 62
4, 19315, Note_on_c, 2, 60, 0
4, 19319, Note_on_c, 2, 64, 0
4, 19322, Note_on_c, 2, 55, 0
4, 19328, Note_on_c, 2, 48, 0
4, 19447, Note_on_c, 2, 64, 84
4, 19450, Note_on_c, 2, 60, 76
4, 19457, Note_on_c, 2, 55, 78
4, 19459, Note_on_c, 2, 48, 76
4, 19486, Control_c, 2, 64, 127
4, 19642, Note_on_c, 2, 60, 0
4, 19652, Note_on_c, 2, 64, 0
4, 19667, Note_on_c, 2, 48, 0
4, 19671, Note_on_c, 2, 55, 0
4, 20131, Control_c, 2, 64, 0
4, 20179, Note_on_c, 2, 84, 66
4, 20182, Note_on_c, 2, 60, 62
4, 20186, Note_on_c, 2, 88, 55
4, 20186, Note_on_c, 2, 79, 66
4, 20187, Note_on_c, 2, 64, 52
4, 20187, Note_on_c, 2, 76, 59
4, 20189, Note_on_c, 2, 55, 52
4, 20227, Note_on_c, 2, 88, 0
4, 20231, Note_on_c, 2, 79, 0
4, 20231, Note_on_c, 2, 76, 0
4, 20233, Note_on_c, 2, 84, 0
4, 20246, Note_on_c, 2, 55, 0
4, 20250, Note_on_c, 2, 60, 0
4, 20253, Note_on_c, 2, 64, 0
4, 20393, Note_on_c, 2, 88, 65
4, 20397, Note_on_c, 2, 76, 69
4, 20398, Note_on_c, 2, 79, 76
4, 20398, Note_on_c, 2, 84, 70
4, 20403, Note_on_c, 2, 64, 58
4, 20404, Note_on_c, 2, 60, 68
4, 20405, Note_on_c, 2, 55, 66
4, 20650, Control_c, 2, 64, 127
4, 20704, Note_on_c, 2, 88, 0
4, 20726, Note_on_c, 2, 55, 0
4, 20727, Note_on_c, 2, 84, 0
4, 20727, Note_on_c, 2, 79, 0
4, 20733, Note_on_c, 2, 76, 0
4, 20739, Note_on_c, 2, 60, 0
4, 20745, Note_on_c, 2, 64, 0
4, 20849, Note_on_c, 2, 76, 49
4, 20851, Note_on_c, 2, 79, 60
4, 20852, Note_on_c, 2, 84, 60
4, 20864, Note_on_c, 2, 60, 56
4, 20865, Note_on_c, 2, 64, 48
4, 20867, Note_on_c, 2, 55, 50
4, 20925, Note_on_c, 2, 76, 0
4, 20928, Note_on_c, 2, 79, 0
4, 20937, Note_on_c, 2, 84, 0
4, 20941, Note_on_c, 2, 55, 0
4, 20944, Note_on_c, 2, 60, 0
4, 20945, Note_on_c, 2, 64, 0
4, 21031, Control_c, 2, 64, 0
4, 21071, Note_on_c, 2, 84, 70
4, 21073, Note_on_c, 2, 88, 63
4, 21075, Note_on_c, 2, 76, 67
4, 21075, Note_on_c, 2, 79, 70
4, 21077, Note_on_c, 2, 60, 62
4, 21077, Note_on_c, 2, 64, 54
4, 21078, Note_on_c, 2, 55, 56
4, 21127, Note_on_c, 2, 76, 0
4, 21128, Note_on_c, 2, 79, 0
4, 21133, Note_on_c, 2, 55, 0
4, 21135, Note_on_c, 2, 84, 0
4, 21139, Note_on_c, 2, 88, 0
4, 21146, Note_on_c, 2, 64, 0
4, 21148, Note_on_c, 2, 60, 0
4, 21302, Note_on_c, 2, 88, 69
4, 21306, Note_on_c, 2, 76, 73
4, 21306, Note_on_c, 2, 84, 74
4, 21307, Note_on_c, 2, 79, 80
4, 21310, Note_on_c, 2, 64, 64
4, 21310, Note_on_c, 2, 60, 72
4, 21311, Note_on_c, 2, 55, 76
4, 21575, Control_c, 2, 64, 127
4, 21603, Note_on_c, 2, 88, 0
4, 21622, Note_on_c, 2, 79, 0
4, 21626, Note_on_c, 2, 84, 0
4, 21635, Note_on_c, 2, 76, 0
4, 21654, Note_on_c, 2, 64, 0
4, 21660, Note_on_c, 2, 55, 0
4, 21664, Note_on_c, 2, 60, 0
4, 21779, Note_on_c, 2, 60, 52
4, 21782, Note_on_c, 2, 55, 48
4, 21783, Note_on_c, 2, 79, 66
4, 21783, Note_on_c, 2, 84, 68
4, 21786, Note_on_c, 2, 76, 63
4, 21786, Note_on_c, 2, 64, 52
4, 21843, Note_on_c, 2, 60, 0
4, 21859, Note_on_c, 2, 79, 0
4, 21860, Note_on_c, 2, 55, 0
4, 21866, Note_on_c, 2, 76, 0
4, 21866, Note_on_c, 2, 64, 0
4, 21869, Note_on_c, 2, 84, 0
4, 22003, Note_on_c, 2, 86, 64
4, 22007, Note_on_c, 2, 83, 69
4, 22007, Note_on_c, 2, 77, 70
4, 22008, Note_on_c, 2, 74, 63
4, 22010, Control_c, 2, 64, 0
4, 22016, Note_on_c, 2, 55, 52
4, 22016, Note_on_c, 2, 59, 48
4, 22019, Note_on_c, 2, 62, 43
4, 22023, Note_on_c, 2, 53, 42
4, 22063, Note_on_c, 2, 74, 0
4, 22067, Note_on_c, 2, 77, 0
4, 22070, Note_on_c, 2, 83, 0
4, 22074, Note_on_c, 2, 86, 0
4, 22087, Note_on_c, 2, 59, 0
4, 22093, Note_on_c, 2, 53, 0
4, 22095, Note_on_c, 2, 62, 0
4, 22099, Note_on_c, 2, 55, 0
4, 22247, Note_on_c, 2, 74, 69
4, 22247, Note_on_c, 2, 86, 70
4, 22249, Note_on_c, 2, 83, 73
4, 22250, Note_on_c, 2, 53, 69
4, 22250, Note_on_c, 2, 77, 76
4, 22252, Note_on_c, 2, 62, 71
4, 22253, Note_on_c, 2, 55, 70
4, 22253, Note_on_c, 2, 59, 76
4, 22518, Control_c, 2, 64, 127
4, 22595, Note_on_c, 2, 74, 0
4, 22601, Note_on_c, 2, 83, 0
4, 22602, Note_on_c, 2, 77, 0
4, 22605, Note_on_c, 2, 86, 0
4, 22607, Note_on_c, 2, 53, 0
4, 22614, Note_on_c, 2, 55, 0
4, 22618, Note_on_c, 2, 62, 0
4, 22618, Note_on_c, 2, 59, 0
4, 22723, Note_on_c, 2, 77, 60
4, 22724, Note_on_c, 2, 83, 63
4, 22727, Note_on_c, 2, 74, 53
4, 22728, Note_on_c, 2, 86, 54
4, 22729, Note_on_c, 2, 59, 72
4, 22733, Note_on_c, 2, 53, 63
4, 22733, Note_on_c, 2, 55, 68
4, 22734, Note_on_c, 2, 62, 65
4, 22791, Note_on_c, 2, 74, 0
4, 22797, Note_on_c, 2, 77, 0
4, 22810, Note_on_c, 2, 83, 0
4, 22812, Note_on_c, 2, 86, 0
4, 22816, Note_on_c, 2, 55, 0
4, 22816, Note_on_c, 2, 62, 0
4, 22817, Note_on_c, 2, 53, 0
4, 22817, Note_on_c, 2, 59, 0
4, 22951, Note_on_c, 2, 88, 69
4, 22951, Note_on_c, 2, 84, 72
4, 22953, Note_on_c, 2, 79, 80
4, 22954, Note_on_c, 2, 76, 75
4, 22954, Note_on_c, 2, 55, 74
4, 22955, Note_on_c, 2, 64, 70
4, 22957, Note_on_c, 2, 60, 78
4, 22958, Control_c, 2, 64, 0
4, 23008, Note_on_c, 2, 76, 0
4, 23011, Note_on_c, 2, 79, 0
4, 23021, Note_on_c, 2, 88, 0
4, 23021, Note_on_c, 2, 84, 0
4, 23030, Note_on_c, 2, 64, 0
4, 23033, Note_on_c, 2, 60, 0
4, 23036, Note_on_c, 2, 55, 0
4, 23196, Note_on_c, 2, 76, 75
4, 23196, Note_on_c, 2, 88, 69
4, 23198, Note_on_c, 2, 84, 72
4, 23198, Note_on_c, 2, 79, 80
4, 23206, Note_on_c, 2, 64, 78
4, 23207, Note_on_c, 2, 55, 82
4, 23207, Note_on_c, 2, 60, 82
4, 23462, Control_c, 2, 64, 127
4, 23516, Note_on_c, 2, 76, 0
4, 23523, Note_on_c, 2, 88, 0
4, 23526, Note_on_c, 2, 79, 0
4, 23532, Note_on_c, 2, 55, 0
4, 23533, Note_on_c, 2, 84, 0
4, 23558, Note_on_c, 2, 60, 0
4, 23561, Note_on_c, 2, 64, 0
4, 23660, Note_on_c, 2, 76, 59
4, 23664, Note_on_c, 2, 60, 56
4, 23665, Note_on_c, 2, 79, 68
4, 23666, Note_on_c, 2, 84, 64
4, 23667, Note_on_c, 2, 55, 56
4, 23668, Note_on_c, 2, 64, 44
4, 23737, Note_on_c, 2, 76, 0
4, 23741, Note_on_c, 2, 79, 0
4, 23751, Note_on_c, 2, 84, 0
4, 23753, Note_on_c, 2, 55, 0
4, 23756, Note_on_c, 2, 64, 0
4, 23762, Note_on_c, 2, 60, 0
4, 23887, Note_on_c, 2, 84, 74
4, 23888, Note_on_c, 2, 76, 67
4, 23889, Note_on_c, 2, 88, 71
4, 23889, Note_on_c, 2, 79, 78
4, 23890, Note_on_c, 2, 60, 70
4, 23891, Note_on_c, 2, 64, 64
4, 23891, Note_on_c, 2, 55, 66
4, 23945, Note_on_c, 2, 79, 0
4, 23945, Note_on_c, 2, 76, 0
4, 23954, Note_on_c, 2, 84, 0
4, 23961, Note_on_c, 2, 60, 0
4, 23962, Note_on_c, 2, 88, 0
4, 23962, Note_on_c, 2, 55, 0
4, 23967, Note_on_c, 2, 64, 0
4, 24111, Note_on_c, 2, 88, 63
4, 24114, Note_on_c, 2, 84, 70
4, 24115, Note_on_c, 2, 76, 71
4, 24118, Note_on_c, 2, 79, 76
4, 24122, Note_on_c, 2, 55, 74
4, 24124, Note_on_c, 2, 64, 68
4, 24124, Note_on_c, 2, 60, 76
4, 24137, Control_c, 2, 64, 0
4, 24380, Control_c, 2, 64, 127
4, 24408, Note_on_c, 2, 79, 0
4, 24415, Note_on_c, 2, 76, 0
4, 24421, Note_on_c, 2, 84, 0
4, 24425, Note_on_c, 2, 88, 0
4, 24431, Note_on_c, 2, 55, 0
4, 24434, Note_on_c, 2, 60, 0
4, 24440, Note_on_c, 2, 64, 0
4, 24570, Note_on_c, 2, 79, 64
4, 24572, Note_on_c, 2, 76, 53
4, 24572, Note_on_c, 2, 84, 58
4, 24574, Note_on_c, 2, 60, 60
4, 24576, Note_on_c, 2, 64, 52
4, 24576, Note_on_c, 2, 55, 58
4, 24581, Control_c, 2, 64, 0
4, 24632, Note_on_c, 2, 76, 0
4, 24636, Note_on_c, 2, 79, 0
4, 24636, Note_on_c, 2, 84, 0
4, 24652, Note_on_c, 2, 64, 0
4, 24653, Note_on_c, 2, 55, 0
4, 24653, Note_on_c, 2, 60, 0
4, 24799, Note_on_c, 2, 84, 70
4, 24800, Note_on_c, 2, 60, 62
4, 24800, Note_on_c, 2, 76, 69
4, 24803, Note_on_c, 2, 88, 67
4, 24804, Note_on_c, 2, 79, 74
4, 24804, Note_on_c, 2, 64, 54
4, 24805, Note_on_c, 2, 55, 64
4, 24847, Note_on_c, 2, 79, 0
4, 24850, Note_on_c, 2, 76, 0
4, 24854, Note_on_c, 2, 88, 0
4, 24854, Note_on_c, 2, 84, 0
4, 24863, Note_on_c, 2, 60, 0
4, 24867, Note_on_c, 2, 55, 0
4, 24869, Note_on_c, 2, 64, 0
4, 25031, Note_on_c, 2, 88, 69
4, 25033, Note_on_c, 2, 76, 73
4, 25033, Note_on_c, 2, 79, 82
4, 25034, Note_on_c, 2, 84, 74
4, 25039, Note_on_c, 2, 55, 76
4, 25042, Note_on_c, 2, 60, 76
4, 25043, Note_on_c, 2, 64, 68
4, 25292, Control_c, 2, 64, 127
4, 25330, Note_on_c, 2, 84, 0
4, 25347, Note_on_c, 2, 88, 0
4, 25353, Note_on_c, 2, 79, 0
4, 25359, Note_on_c, 2, 55, 0
4, 25368, Note_on_c, 2, 64, 0
4, 25372, Note_on_c, 2, 60, 0
4, 25372, Note_on_c, 2, 76, 0
4, 25498, Note_on_c, 2, 60, 50
4, 25500, Note_on_c, 2, 55, 40
4, 25500, Note_on_c, 2, 79, 64
4, 25502, Note_on_c, 2, 76, 61
4, 25502, Note_on_c, 2, 84, 62
4, 25503, Note_on_c, 2, 64, 50
4, 25551, Note_on_c, 2, 84, 0
4, 25554, Note_on_c, 2, 79, 0
4, 25558, Note_on_c, 2, 60, 0
4, 25560, Note_on_c, 2, 55, 0
4, 25568, Note_on_c, 2, 64, 0
4, 25568, Note_on_c, 2, 76, 0
4, 25743, Note_on_c, 2, 79, 78
4, 25743, Note_on_c, 2, 77, 76
4, 25745, Note_on_c, 2, 83, 79
4, 25745, Note_on_c, 2, 74, 67
4, 25746, Note_on_c, 2, 53, 61
4, 25750, Note_on_c, 2, 55, 70
4, 25750, Note_on_c, 2, 59, 66
4, 25751, Control_c, 2, 64, 0
4, 25751, Note_on_c, 2, 62, 69
4, 25980, Control_c, 2, 64, 127
4, 26021, Note_on_c, 2, 79, 0
4, 26028, Note_on_c, 2, 83, 0
4, 26031, Note_on_c, 2, 77, 0
4, 26034, Note_on_c, 2, 74, 0
4, 26053, Note_on_c, 2, 53, 0
4, 26056, Note_on_c, 2, 62, 0
4, 26060, Note_on_c, 2, 59, 0
4, 26060, Note_on_c, 2, 55, 0
4, 26220, Note_on_c, 2, 77, 70
4, 26222, Note_on_c, 2, 74, 61
4, 26223, Note_on_c, 2, 79, 74
4, 26226, Note_on_c, 2, 83, 75
4, 26226, Note_on_c, 2, 59, 44
4, 26227, Note_on_c, 2, 53, 44
4, 26228, Note_on_c, 2, 55, 45
4, 26229, Note_on_c, 2, 62, 49
4, 26354, Note_on_c, 2, 59, 0
4, 26363, Note_on_c, 2, 62, 0
4, 26373, Note_on_c, 2, 55, 0
4, 26376, Note_on_c, 2, 74, 0
4, 26382, Note_on_c, 2, 53, 0
4, 26383, Note_on_c, 2, 77, 0
4, 26386, Note_on_c, 2, 79, 0
4, 26402, Note_on_c, 2, 83, 0
4, 26658, Control_c, 2, 64, 0
4, 26677, Note_on_c, 2, 84, 74
4, 26681, Note_on_c, 2, 55, 60
4, 26682, Note_on_c, 2, 76, 79
4, 26683, Note_on_c, 2, 72, 70
4, 26684, Note_on_c, 2, 52, 49
4, 26685, Note_on_c, 2, 60, 56
4, 26725, Note_on_c, 2, 72, 0
4, 26728, Note_on_c, 2, 76, 0
4, 26732, Note_on_c, 2, 84, 0
4, 26757, Note_on_c, 2, 52, 0
4, 26758, Note_on_c, 2, 60, 0
4, 26759, Note_on_c, 2, 55, 0
4, 26898, Note_on_c, 2, 76, 73
4, 26898, Note_on_c, 2, 84, 60
4, 26904, Note_on_c, 2, 72, 60
4, 26905, Note_on_c, 2, 55, 66
4, 26906, Note_on_c, 2, 52, 53
4, 26907, Note_on_c, 2, 60, 56
4, 26946, Note_on_c, 2, 72, 0
4, 26949, Note_on_c, 2, 76, 0
4, 26949, Note_on_c, 2, 84, 0
4, 26968, Note_on_c, 2, 52, 0
4, 26969, Note_on_c, 2, 60, 0
4, 26972, Note_on_c, 2, 55, 0
4, 27135, Note_on_c, 2, 84, 74
4, 27137, Note_on_c, 2, 55, 82
4, 27139, Note_on_c, 2, 76, 81
4, 27139, Note_on_c, 2, 72, 76
4, 27140, Note_on_c, 2, 52, 75
4, 27140, Note_on_c, 2, 60, 70
4, 27653, Note_on_c, 2, 72, 0
4, 27653, Note_on_c, 2, 76, 0
4, 27662, Note_on_c, 2, 84, 0
4, 27672, Note_on_c, 2, 60, 0
4, 27672, Note_on_c, 2, 52, 0
4, 27675, Note_on_c, 2, 55, 0
4, 28334, Control_c, 2, 127, 0
4, 28344, Control_c, 2, 64, 0
4, 28353, Control_c, 2, 10, 64
4, 28353, Pitch_bend_c, 2, 8192
4, 28353, Control_c, 2, 121, 0
4, 28353, End_track
5, 0, Start_track
5, 0, MIDI_port, 0
5, 0, Title_t, "Piano Right"
5, 0, Control_c, 3, 93, 21
5, 0, Control_c, 3, 91, 22
5, 0, Pitch_bend_c, 3, 8274
5, 401, Program_c, 3, 0
5, 402, Control_c, 3, 7, 127
5, 402, Control_c, 3, 10, 127
5, 1549, Note_on_c, 3, 76, 91
5, 1551, Note_on_c, 3, 72, 88
5, 1555, Note_on_c, 3, 67, 85
5, 1559, Note_on_c, 3, 60, 74
5, 1566, Note_on_c, 3, 55, 78
5, 1566, Note_on_c, 3, 64, 76
5, 1809, Control_c, 3, 64, 127
5, 2033, Note_on_c, 3, 55, 0
5, 2044, Note_on_c, 3, 67, 0
5, 2044, Note_on_c, 3, 76, 0
5, 2062, Note_on_c, 3, 72, 0
5, 2064, Note_on_c, 3, 64, 0
5, 2090, Note_on_c, 3, 60, 0
5, 2210, Note_on_c, 3, 77, 82
5, 2213, Note_on_c, 3, 69, 77
5, 2213, Note_on_c, 3, 72, 84
5, 2218, Note_on_c, 3, 57, 60
5, 2221, Note_on_c, 3, 60, 46
5, 2223, Note_on_c, 3, 65, 48
5, 2242, Control_c, 3, 64, 0
5, 2334, Note_on_c, 3, 69, 0
5, 2336, Note_on_c, 3, 60, 0
5, 2341, Note_on_c, 3, 65, 0
5, 2346, Note_on_c, 3, 72, 0
5, 2351, Note_on_c, 3, 77, 0
5, 2362, Note_on_c, 3, 57, 0
5, 2445, Note_on_c, 3, 76, 89
5, 2446, Note_on_c, 3, 72, 86
5, 2450, Note_on_c, 3, 67, 81
5, 2455, Note_on_c, 3, 60, 60
5, 2461, Note_on_c, 3, 64, 47
5, 2462, Note_on_c, 3, 55, 70
5, 2720, Control_c, 3, 64, 127
5, 2789, Note_on_c, 3, 67, 0
5, 2789, Note_on_c, 3, 72, 0
5, 2816, Note_on_c, 3, 55, 0
5, 2829, Note_on_c, 3, 60, 0
5, 2835, Note_on_c, 3, 64, 0
5, 2921, Note_on_c, 3, 72, 84
5, 2923, Note_on_c, 3, 67, 83
5, 2929, Note_on_c, 3, 76, 0
5, 2929, Note_on_c, 3, 60, 64
5, 2931, Note_on_c, 3, 64, 60
5, 2935, Note_on_c, 3, 55, 58
5, 3096, Note_on_c, 3, 67, 0
5, 3120, Note_on_c, 3, 72, 0
5, 3127, Note_on_c, 3, 60, 0
5, 3133, Note_on_c, 3, 64, 0
5, 3136, Note_on_c, 3, 55, 0
5, 3410, Note_on_c, 3, 79, 86
5, 3414, Note_on_c, 3, 74, 85
5, 3415, Note_on_c, 3, 59, 70
5, 3416, Note_on_c, 3, 71, 84
5, 3420, Note_on_c, 3, 67, 79
5, 3422, Note_on_c, 3, 62, 61
5, 3424, Note_on_c, 3, 55, 66
5, 3424, Note_on_c, 3, 53, 61
5, 3437, Control_c, 3, 64, 0
5, 3680, Control_c, 3, 64, 127
5, 3756, Note_on_c, 3, 79, 0
5, 3765, Note_on_c, 3, 67, 0
5, 3772, Note_on_c, 3, 53, 0
5, 3772, Note_on_c, 3, 74, 0
5, 3780, Note_on_c, 3, 71, 0
5, 3788, Note_on_c, 3, 62, 0
5, 3793, Note_on_c, 3, 59, 0
5, 3799, Note_on_c, 3, 55, 0
5, 3877, Note_on_c, 3, 79, 84
5, 3879, Note_on_c, 3, 71, 84
5, 3881, Note_on_c, 3, 74, 81
5, 3884, Note_on_c, 3, 67, 81
5, 3889, Note_on_c, 3, 59, 66
5, 3889, Note_on_c, 3, 55, 62
5, 3892, Note_on_c, 3, 53, 51
5, 3894, Note_on_c, 3, 62, 67
5, 4061, Note_on_c, 3, 62, 0
5, 4068, Note_on_c, 3, 59, 0
5, 4074, Note_on_c, 3, 55, 0
5, 4082, Note_on_c, 3, 53, 0
5, 4103, Note_on_c, 3, 71, 0
5, 4130, Note_on_c, 3, 67, 0
5, 4146, Note_on_c, 3, 79, 0
5, 4160, Note_on_c, 3, 74, 0
5, 4301, Control_c, 3, 64, 0
5, 4316, Note_on_c, 3, 76, 81
5, 4318, Note_on_c, 3, 72, 82
5, 4322, Note_on_c, 3, 67, 79
5, 4325, Note_on_c, 3, 55, 62
5, 4330, Note_on_c, 3, 60, 54
5, 4331, Note_on_c, 3, 52, 53
5, 4385, Note_on_c, 3, 72, 0
5, 4392, Note_on_c, 3, 67, 0
5, 4403, Note_on_c, 3, 76, 0
5, 4411, Note_on_c, 3, 60, 0
5, 4411, Note_on_c, 3, 52, 0
5, 4414, Note_on_c, 3, 55, 0
5, 4547, Note_on_c, 3, 76, 87
5, 4550, Note_on_c, 3, 67, 83
5, 4551, Note_on_c, 3, 72, 88
5, 4555, Note_on_c, 3, 52, 63
5, 4557, Note_on_c, 3, 55, 70
5, 4558, Note_on_c, 3, 60, 62
5, 4817, Control_c, 3, 64, 127
5, 4965, Note_on_c, 3, 67, 0
5, 4973, Note_on_c, 3, 72, 0
5, 4982, Note_on_c, 3, 55, 0
5, 4987, Note_on_c, 3, 52, 0
5, 4988, Note_on_c, 3, 76, 0
5, 5011, Note_on_c, 3, 60, 0
5, 5264, Note_on_c, 3, 72, 45
5, 5269, Note_on_c, 3, 67, 51
5, 5270, Note_on_c, 3, 76, 46
5, 5270, Note_on_c, 3, 60, 58
5, 5277, Note_on_c, 3, 55, 56
5, 5277, Note_on_c, 3, 64, 56
5, 5278, Control_c, 3, 64, 0
5, 5339, Note_on_c, 3, 67, 0
5, 5339, Note_on_c, 3, 72, 0
5, 5343, Note_on_c, 3, 76, 0
5, 5499, Note_on_c, 3, 72, 54
5, 5500, Note_on_c, 3, 76, 49
5, 5502, Note_on_c, 3, 67, 55
5, 5572, Note_on_c, 3, 72, 0
5, 5573, Note_on_c, 3, 67, 0
5, 5583, Note_on_c, 3, 76, 0
5, 5613, Note_on_c, 3, 72, 58
5, 5615, Note_on_c, 3, 67, 42
5, 5615, Note_on_c, 3, 76, 51
5, 5654, Note_on_c, 3, 55, 0
5, 5666, Note_on_c, 3, 64, 0
5, 5668, Note_on_c, 3, 60, 0
5, 5687, Note_on_c, 3, 72, 0
5, 5689, Note_on_c, 3, 76, 0
5, 5692, Note_on_c, 3, 67, 0
5, 5710, Note_on_c, 3, 67, 28
5, 5712, Note_on_c, 3, 76, 48
5, 5712, Note_on_c, 3, 72, 46
5, 5717, Note_on_c, 3, 60, 54
5, 5717, Note_on_c, 3, 64, 52
5, 5722, Note_on_c, 3, 55, 56
5, 5798, Note_on_c, 3, 72, 0
5, 5803, Note_on_c, 3, 67, 0
5, 5807, Note_on_c, 3, 76, 0
5, 5958, Note_on_c, 3, 72, 56
5, 5958, Note_on_c, 3, 76, 49
5, 5963, Note_on_c, 3, 67, 55
5, 6023, Note_on_c, 3, 67, 0
5, 6023, Note_on_c, 3, 72, 0
5, 6031, Note_on_c, 3, 76, 0
5, 6157, Note_on_c, 3, 55, 0
5, 6165, Note_on_c, 3, 64, 0
5, 6185, Note_on_c, 3, 64, 37
5, 6191, Note_on_c, 3, 55, 46
5, 6427, Note_on_c, 3, 72, 58
5, 6429, Note_on_c, 3, 76, 57
5, 6430, Note_on_c, 3, 67, 63
5, 6502, Note_on_c, 3, 72, 0
5, 6507, Note_on_c, 3, 76, 0
5, 6507, Note_on_c, 3, 67, 0
5, 6540, Note_on_c, 3, 72, 68
5, 6541, Note_on_c, 3, 76, 67
5, 6545, Note_on_c, 3, 67, 47
5, 6605, Note_on_c, 3, 55, 0
5, 6615, Note_on_c, 3, 72, 0
5, 6618, Note_on_c, 3, 60, 0
5, 6618, Note_on_c, 3, 64, 0
5, 6625, Note_on_c, 3, 67, 0
5, 6627, Note_on_c, 3, 76, 0
5, 6648, Note_on_c, 3, 76, 55
5, 6648, Note_on_c, 3, 67, 45
5, 6651, Note_on_c, 3, 72, 66
5, 6659, Note_on_c, 3, 64, 47
5, 6659, Note_on_c, 3, 60, 56
5, 6660, Note_on_c, 3, 55, 54
5, 6726, Note_on_c, 3, 72, 0
5, 6731, Note_on_c, 3, 67, 0
5, 6739, Note_on_c, 3, 76, 0
5, 6759, Control_c, 3, 64, 127
5, 6877, Note_on_c, 3, 72, 60
5, 6879, Note_on_c, 3, 76, 61
5, 6885, Note_on_c, 3, 67, 65
5, 6893, Note_on_c, 3, 60, 0
5, 6902, Note_on_c, 3, 55, 0
5, 6905, Note_on_c, 3, 64, 0
5, 6955, Note_on_c, 3, 67, 0
5, 6960, Note_on_c, 3, 72, 0
5, 6966, Note_on_c, 3, 76, 0
5, 7111, Note_on_c, 3, 59, 52
5, 7113, Note_on_c, 3, 62, 51
5, 7114, Note_on_c, 3, 55, 58
5, 7114, Note_on_c, 3, 53, 42
5, 7132, Control_c, 3, 64, 0
5, 7336, Note_on_c, 3, 77, 62
5, 7338, Note_on_c, 3, 71, 70
5, 7340, Note_on_c, 3, 67, 63
5, 7405, Note_on_c, 3, 67, 0
5, 7408, Note_on_c, 3, 71, 0
5, 7419, Note_on_c, 3, 77, 0
5, 7451, Note_on_c, 3, 77, 60
5, 7453, Note_on_c, 3, 71, 72
5, 7455, Note_on_c, 3, 67, 53
5, 7475, Note_on_c, 3, 59, 0
5, 7479, Note_on_c, 3, 53, 0
5, 7479, Note_on_c, 3, 55, 0
5, 7481, Note_on_c, 3, 62, 0
5, 7514, Note_on_c, 3, 67, 0
5, 7517, Note_on_c, 3, 71, 0
5, 7522, Note_on_c, 3, 77, 0
5, 7562, Note_on_c, 3, 71, 70
5, 7562, Note_on_c, 3, 77, 51
5, 7563, Note_on_c, 3, 67, 48
5, 7582, Note_on_c, 3, 59, 60
5, 7584, Note_on_c, 3, 62, 49
5, 7584, Note_on_c, 3, 55, 50
5, 7585, Note_on_c, 3, 53, 40
5, 7618, Note_on_c, 3, 77, 0
5, 7622, Note_on_c, 3, 71, 0
5, 7624, Note_on_c, 3, 67, 0
5, 7813, Note_on_c, 3, 77, 50
5, 7814, Note_on_c, 3, 71, 70
5, 7816, Note_on_c, 3, 67, 59
5, 7840, Control_c, 3, 64, 127
5, 7875, Note_on_c, 3, 55, 0
5, 7882, Note_on_c, 3, 59, 0
5, 7885, Note_on_c, 3, 67, 0
5, 7891, Note_on_c, 3, 71, 0
5, 7896, Note_on_c, 3, 53, 0
5, 7906, Note_on_c, 3, 77, 0
5, 7918, Note_on_c, 3, 62, 0
5, 8060, Note_on_c, 3, 60, 58
5, 8061, Note_on_c, 3, 55, 45
5, 8066, Note_on_c, 3, 64, 54
5, 8088, Control_c, 3, 64, 0
5, 8283, Note_on_c, 3, 76, 59
5, 8285, Note_on_c, 3, 72, 68
5, 8289, Note_on_c, 3, 67, 71
5, 8362, Note_on_c, 3, 67, 0
5, 8362, Note_on_c, 3, 72, 0
5, 8366, Note_on_c, 3, 76, 0
5, 8404, Note_on_c, 3, 67, 53
5, 8406, Note_on_c, 3, 76, 77
5, 8407, Note_on_c, 3, 72, 76
5, 8415, Note_on_c, 3, 55, 0
5, 8441, Note_on_c, 3, 60, 0
5, 8443, Note_on_c, 3, 64, 0
5, 8474, Note_on_c, 3, 67, 0
5, 8474, Note_on_c, 3, 72, 0
5, 8482, Note_on_c, 3, 76, 0
5, 8521, Note_on_c, 3, 60, 52
5, 8523, Note_on_c, 3, 64, 47
5, 8527, Note_on_c, 3, 76, 73
5, 8527, Note_on_c, 3, 55, 50
5, 8530, Note_on_c, 3, 67, 51
5, 8531, Note_on_c, 3, 72, 74
5, 8582, Note_on_c, 3, 72, 0
5, 8585, Note_on_c, 3, 76, 0
5, 8586, Note_on_c, 3, 67, 0
5, 8768, Note_on_c, 3, 76, 69
5, 8768, Note_on_c, 3, 72, 74
5, 8769, Note_on_c, 3, 67, 73
5, 8806, Control_c, 3, 64, 127
5, 8829, Note_on_c, 3, 67, 0
5, 8835, Note_on_c, 3, 72, 0
5, 8843, Note_on_c, 3, 76, 0
5, 8879, Note_on_c, 3, 55, 0
5, 8892, Note_on_c, 3, 60, 0
5, 8901, Note_on_c, 3, 64, 0
5, 9007, Note_on_c, 3, 60, 68
5, 9010, Note_on_c, 3, 64, 64
5, 9011, Note_on_c, 3, 55, 68
5, 9237, Note_on_c, 3, 72, 62
5, 9243, Note_on_c, 3, 76, 63
5, 9246, Note_on_c, 3, 67, 55
5, 9302, Control_c, 3, 64, 0
5, 9305, Note_on_c, 3, 72, 0
5, 9307, Note_on_c, 3, 76, 0
5, 9310, Note_on_c, 3, 67, 0
5, 9330, Note_on_c, 3, 55, 0
5, 9334, Note_on_c, 3, 60, 0
5, 9342, Note_on_c, 3, 64, 0
5, 9353, Note_on_c, 3, 72, 74
5, 9355, Note_on_c, 3, 76, 73
5, 9357, Note_on_c, 3, 67, 51
5, 9413, Note_on_c, 3, 76, 0
5, 9414, Note_on_c, 3, 72, 0
5, 9418, Note_on_c, 3, 67, 0
5, 9452, Note_on_c, 3, 55, 43
5, 9453, Note_on_c, 3, 60, 48
5, 9454, Note_on_c, 3, 72, 70
5, 9454, Note_on_c, 3, 76, 69
5, 9454, Note_on_c, 3, 64, 43
5, 9455, Note_on_c, 3, 67, 46
5, 9516, Note_on_c, 3, 72, 0
5, 9519, Note_on_c, 3, 76, 0
5, 9521, Note_on_c, 3, 67, 0
5, 9686, Note_on_c, 3, 76, 51
5, 9687, Note_on_c, 3, 72, 64
5, 9690, Note_on_c, 3, 67, 63
5, 9750, Note_on_c, 3, 67, 0
5, 9751, Note_on_c, 3, 72, 0
5, 9759, Note_on_c, 3, 76, 0
5, 9788, Note_on_c, 3, 60, 0
5, 9791, Note_on_c, 3, 55, 0
5, 9796, Note_on_c, 3, 64, 0
5, 9923, Note_on_c, 3, 55, 54
5, 9923, Note_on_c, 3, 60, 62
5, 9924, Note_on_c, 3, 64, 54
5, 10146, Note_on_c, 3, 72, 70
5, 10147, Note_on_c, 3, 76, 67
5, 10151, Note_on_c, 3, 67, 69
5, 10182, Control_c, 3, 64, 127
5, 10214, Note_on_c, 3, 72, 0
5, 10218, Note_on_c, 3, 67, 0
5, 10221, Note_on_c, 3, 76, 0
5, 10259, Note_on_c, 3, 72, 68
5, 10260, Note_on_c, 3, 76, 69
5, 10264, Note_on_c, 3, 67, 46
5, 10277, Note_on_c, 3, 55, 0
5, 10281, Note_on_c, 3, 60, 0
5, 10295, Note_on_c, 3, 64, 0
5, 10326, Note_on_c, 3, 67, 0
5, 10327, Note_on_c, 3, 72, 0
5, 10328, Note_on_c, 3, 76, 0
5, 10379, Note_on_c, 3, 76, 71
5, 10380, Note_on_c, 3, 60, 56
5, 10381, Note_on_c, 3, 55, 50
5, 10382, Note_on_c, 3, 72, 70
5, 10384, Note_on_c, 3, 67, 55
5, 10385, Note_on_c, 3, 64, 46
5, 10442, Note_on_c, 3, 67, 0
5, 10447, Note_on_c, 3, 72, 0
5, 10450, Note_on_c, 3, 76, 0
5, 10601, Note_on_c, 3, 60, 0
5, 10601, Note_on_c, 3, 72, 68
5, 10603, Note_on_c, 3, 76, 65
5, 10607, Note_on_c, 3, 55, 0
5, 10607, Note_on_c, 3, 67, 69
5, 10614, Note_on_c, 3, 64, 0
5, 10668, Note_on_c, 3, 72, 0
5, 10669, Note_on_c, 3, 67, 0
5, 10676, Note_on_c, 3, 76, 0
5, 10825, Control_c, 3, 64, 0
5, 10840, Note_on_c, 3, 59, 60
5, 10842, Note_on_c, 3, 55, 60
5, 10843, Note_on_c, 3, 62, 57
5, 10843, Note_on_c, 3, 53, 49
5, 11066, Note_on_c, 3, 77, 70
5, 11068, Note_on_c, 3, 71, 76
5, 11070, Note_on_c, 3, 67, 67
5, 11128, Note_on_c, 3, 71, 0
5, 11133, Note_on_c, 3, 67, 0
5, 11149, Note_on_c, 3, 77, 0
5, 11181, Note_on_c, 3, 77, 74
5, 11184, Note_on_c, 3, 67, 65
5, 11186, Note_on_c, 3, 71, 80
5, 11240, Note_on_c, 3, 55, 0
5, 11242, Note_on_c, 3, 53, 0
5, 11243, Note_on_c, 3, 71, 0
5, 11244, Note_on_c, 3, 59, 0
5, 11246, Note_on_c, 3, 67, 0
5, 11246, Note_on_c, 3, 62, 0
5, 11261, Note_on_c, 3, 77, 0
5, 11290, Note_on_c, 3, 77, 62
5, 11292, Note_on_c, 3, 71, 78
5, 11296, Note_on_c, 3, 67, 53
5, 11310, Note_on_c, 3, 59, 62
5, 11314, Note_on_c, 3, 62, 53
5, 11314, Note_on_c, 3, 55, 52
5, 11315, Note_on_c, 3, 53, 42
5, 11355, Control_c, 3, 64, 127
5, 11363, Note_on_c, 3, 67, 0
5, 11365, Note_on_c, 3, 71, 0
5, 11367, Note_on_c, 3, 77, 0
5, 11535, Note_on_c, 3, 71, 70
5, 11536, Note_on_c, 3, 77, 68
5, 11542, Note_on_c, 3, 55, 0
5, 11544, Note_on_c, 3, 67, 71
5, 11546, Note_on_c, 3, 59, 0
5, 11547, Note_on_c, 3, 62, 0
5, 11558, Note_on_c, 3, 53, 0
5, 11615, Note_on_c, 3, 71, 0
5, 11619, Note_on_c, 3, 67, 0
5, 11638, Note_on_c, 3, 77, 0
5, 11756, Control_c, 3, 64, 0
5, 11767, Note_on_c, 3, 76, 79
5, 11772, Note_on_c, 3, 72, 78
5, 11776, Note_on_c, 3, 67, 77
5, 11782, Note_on_c, 3, 55, 56
5, 11789, Note_on_c, 3, 52, 41
5, 11790, Note_on_c, 3, 60, 48
5, 11830, Note_on_c, 3, 67, 0
5, 11830, Note_on_c, 3, 72, 0
5, 11841, Note_on_c, 3, 76, 0
5, 11854, Note_on_c, 3, 60, 0
5, 11859, Note_on_c, 3, 52, 0
5, 11861, Note_on_c, 3, 55, 0
5, 12008, Note_on_c, 3, 76, 85
5, 12012, Note_on_c, 3, 72, 90
5, 12013, Note_on_c, 3, 67, 85
5, 12018, Note_on_c, 3, 60, 64
5, 12018, Note_on_c, 3, 55, 72
5, 12020, Note_on_c, 3, 52, 61
5, 12296, Control_c, 3, 64, 127
5, 12445, Note_on_c, 3, 76, 0
5, 12450, Note_on_c, 3, 72, 0
5, 12460, Note_on_c, 3, 67, 0
5, 12479, Note_on_c, 3, 55, 0
5, 12488, Note_on_c, 3, 60, 0
5, 12502, Note_on_c, 3, 52, 0
5, 12740, Note_on_c, 3, 64, 92
5, 12741, Note_on_c, 3, 60, 82
5, 12748, Note_on_c, 3, 55, 78
5, 12751, Control_c, 3, 64, 0
5, 12752, Note_on_c, 3, 48, 70
5, 13185, Control_c, 3, 64, 127
5, 13283, Note_on_c, 3, 48, 0
5, 13288, Note_on_c, 3, 55, 0
5, 13307, Note_on_c, 3, 60, 0
5, 13325, Note_on_c, 3, 64, 0
5, 13397, Control_c, 3, 64, 0
5, 13418, Note_on_c, 3, 65, 90
5, 13421, Note_on_c, 3, 60, 80
5, 13422, Note_on_c, 3, 57, 66
5, 13423, Note_on_c, 3, 48, 60
5, 13563, Note_on_c, 3, 60, 0
5, 13582, Note_on_c, 3, 48, 0
5, 13588, Note_on_c, 3, 65, 0
5, 13589, Note_on_c, 3, 57, 0
5, 13645, Note_on_c, 3, 64, 90
5, 13650, Note_on_c, 3, 60, 78
5, 13652, Note_on_c, 3, 48, 60
5, 13653, Note_on_c, 3, 55, 70
5, 14113, Control_c, 3, 64, 127
5, 14229, Note_on_c, 3, 55, 0
5, 14231, Note_on_c, 3, 48, 0
5, 14245, Note_on_c, 3, 60, 0
5, 14256, Note_on_c, 3, 64, 0
5, 14350, Note_on_c, 3, 55, 60
5, 14352, Note_on_c, 3, 64, 90
5, 14354, Note_on_c, 3, 60, 76
5, 14356, Note_on_c, 3, 48, 50
5, 14466, Note_on_c, 3, 60, 0
5, 14468, Note_on_c, 3, 55, 0
5, 14477, Note_on_c, 3, 48, 0
5, 14496, Note_on_c, 3, 64, 0
5, 14580, Note_on_c, 3, 67, 93
5, 14581, Note_on_c, 3, 59, 80
5, 14583, Control_c, 3, 64, 0
5, 14590, Note_on_c, 3, 55, 60
5, 14594, Note_on_c, 3, 50, 60
5, 15067, Control_c, 3, 64, 127
5, 15164, Note_on_c, 3, 50, 0
5, 15172, Note_on_c, 3, 55, 0
5, 15176, Note_on_c, 3, 59, 0
5, 15187, Note_on_c, 3, 67, 0
5, 15285, Note_on_c, 3, 67, 93
5, 15291, Note_on_c, 3, 59, 76
5, 15294, Note_on_c, 3, 55, 62
5, 15296, Note_on_c, 3, 50, 68
5, 15434, Note_on_c, 3, 59, 0
5, 15441, Note_on_c, 3, 55, 0
5, 15445, Note_on_c, 3, 67, 0
5, 15461, Note_on_c, 3, 50, 0
5, 15508, Note_on_c, 3, 64, 88
5, 15512, Control_c, 3, 64, 0
5, 15512, Note_on_c, 3, 60, 74
5, 15518, Note_on_c, 3, 55, 54
5, 15521, Note_on_c, 3, 48, 66
5, 15982, Control_c, 3, 64, 127
5, 16115, Note_on_c, 3, 48, 0
5, 16119, Note_on_c, 3, 55, 0
5, 16123, Note_on_c, 3, 60, 0
5, 16150, Note_on_c, 3, 64, 0
5, 16201, Note_on_c, 3, 64, 90
5, 16206, Note_on_c, 3, 60, 74
5, 16209, Note_on_c, 3, 55, 66
5, 16215, Note_on_c, 3, 48, 56
5, 16328, Note_on_c, 3, 60, 0
5, 16333, Note_on_c, 3, 64, 0
5, 16336, Note_on_c, 3, 48, 0
5, 16343, Note_on_c, 3, 55, 0
5, 16423, Note_on_c, 3, 64, 94
5, 16426, Note_on_c, 3, 60, 78
5, 16439, Note_on_c, 3, 55, 72
5, 16445, Note_on_c, 3, 48, 70
5, 16458, Control_c, 3, 64, 0
5, 16910, Control_c, 3, 64, 127
5, 17024, Note_on_c, 3, 48, 0
5, 17028, Note_on_c, 3, 55, 0
5, 17044, Note_on_c, 3, 60, 0
5, 17072, Note_on_c, 3, 64, 0
5, 17137, Note_on_c, 3, 65, 88
5, 17137, Note_on_c, 3, 60, 74
5, 17139, Note_on_c, 3, 48, 48
5, 17141, Note_on_c, 3, 57, 68
5, 17290, Note_on_c, 3, 60, 0
5, 17302, Note_on_c, 3, 48, 0
5, 17306, Note_on_c, 3, 57, 0
5, 17320, Note_on_c, 3, 65, 0
5, 17364, Control_c, 3, 64, 0
5, 17373, Note_on_c, 3, 64, 92
5, 17375, Note_on_c, 3, 60, 76
5, 17377, Note_on_c, 3, 55, 66
5, 17382, Note_on_c, 3, 48, 50
5, 17825, Control_c, 3, 64, 127
5, 17942, Note_on_c, 3, 48, 0
5, 17950, Note_on_c, 3, 55, 0
5, 17950, Note_on_c, 3, 60, 0
5, 17970, Note_on_c, 3, 64, 0
5, 18064, Note_on_c, 3, 64, 90
5, 18065, Note_on_c, 3, 55, 58
5, 18067, Note_on_c, 3, 60, 72
5, 18071, Note_on_c, 3, 48, 54
5, 18142, Note_on_c, 3, 55, 0
5, 18148, Note_on_c, 3, 60, 0
5, 18159, Note_on_c, 3, 48, 0
5, 18160, Note_on_c, 3, 64, 0
5, 18298, Note_on_c, 3, 59, 78
5, 18300, Note_on_c, 3, 67, 95
5, 18304, Control_c, 3, 64, 0
5, 18308, Note_on_c, 3, 55, 48
5, 18316, Note_on_c, 3, 47, 73
5, 18586, Control_c, 3, 64, 127
5, 18876, Note_on_c, 3, 47, 0
5, 18887, Note_on_c, 3, 55, 0
5, 18897, Note_on_c, 3, 59, 0
5, 18910, Note_on_c, 3, 67, 0
5, 19005, Note_on_c, 3, 67, 89
5, 19006, Note_on_c, 3, 55, 56
5, 19007, Note_on_c, 3, 59, 78
5, 19008, Note_on_c, 3, 47, 63
5, 19078, Note_on_c, 3, 47, 0
5, 19098, Note_on_c, 3, 55, 0
5, 19111, Note_on_c, 3, 59, 0
5, 19129, Note_on_c, 3, 67, 0
5, 19219, Control_c, 3, 64, 0
5, 19225, Note_on_c, 3, 64, 88
5, 19230, Note_on_c, 3, 60, 70
5, 19244, Note_on_c, 3, 48, 44
5, 19245, Note_on_c, 3, 55, 62
5, 19315, Note_on_c, 3, 60, 0
5, 19318, Note_on_c, 3, 64, 0
5, 19322, Note_on_c, 3, 55, 0
5, 19330, Note_on_c, 3, 48, 0
5, 19446, Note_on_c, 3, 64, 88
5, 19450, Note_on_c, 3, 60, 76
5, 19457, Note_on_c, 3, 55, 78
5, 19461, Note_on_c, 3, 48, 72
5, 19486, Control_c, 3, 64, 127
5, 19642, Note_on_c, 3, 60, 0
5, 19651, Note_on_c, 3, 64, 0
5, 19669, Note_on_c, 3, 48, 0
5, 19671, Note_on_c, 3, 55, 0
5, 20131, Control_c, 3, 64, 0
5, 20172, Note_on_c, 3, 84, 82
5, 20178, Note_on_c, 3, 88, 73
5, 20181, Note_on_c, 3, 79, 78
5, 20182, Note_on_c, 3, 60, 62
5, 20183, Note_on_c, 3, 76, 69
5, 20186, Note_on_c, 3, 64, 56
5, 20189, Note_on_c, 3, 55, 52
5, 20219, Note_on_c, 3, 88, 0
5, 20226, Note_on_c, 3, 84, 0
5, 20226, Note_on_c, 3, 79, 0
5, 20227, Note_on_c, 3, 76, 0
5, 20246, Note_on_c, 3, 55, 0
5, 20250, Note_on_c, 3, 60, 0
5, 20252, Note_on_c, 3, 64, 0
5, 20385, Note_on_c, 3, 88, 83
5, 20391, Note_on_c, 3, 84, 86
5, 20393, Note_on_c, 3, 79, 88
5, 20393, Note_on_c, 3, 76, 79
5, 20402, Note_on_c, 3, 64, 62
5, 20404, Note_on_c, 3, 60, 68
5, 20405, Note_on_c, 3, 55, 66
5, 20650, Control_c, 3, 64, 127
5, 20696, Note_on_c, 3, 88, 0
5, 20720, Note_on_c, 3, 84, 0
5, 20722, Note_on_c, 3, 79, 0
5, 20726, Note_on_c, 3, 55, 0
5, 20729, Note_on_c, 3, 76, 0
5, 20739, Note_on_c, 3, 60, 0
5, 20744, Note_on_c, 3, 64, 0
5, 20845, Note_on_c, 3, 84, 76
5, 20845, Note_on_c, 3, 76, 59
5, 20846, Note_on_c, 3, 79, 72
5, 20864, Note_on_c, 3, 60, 56
5, 20864, Note_on_c, 3, 64, 52
5, 20867, Note_on_c, 3, 55, 50
5, 20921, Note_on_c, 3, 76, 0
5, 20923, Note_on_c, 3, 79, 0
5, 20930, Note_on_c, 3, 84, 0
5, 20941, Note_on_c, 3, 55, 0
5, 20944, Note_on_c, 3, 60, 0
5, 20944, Note_on_c, 3, 64, 0
5, 21031, Control_c, 3, 64, 0
5, 21064, Note_on_c, 3, 84, 86
5, 21065, Note_on_c, 3, 88, 81
5, 21070, Note_on_c, 3, 79, 82
5, 21071, Note_on_c, 3, 76, 77
5, 21076, Note_on_c, 3, 64, 58
5, 21077, Note_on_c, 3, 60, 62
5, 21078, Note_on_c, 3, 55, 56
5, 21123, Note_on_c, 3, 76, 0
5, 21123, Note_on_c, 3, 79, 0
5, 21128, Note_on_c, 3, 84, 0
5, 21131, Note_on_c, 3, 88, 0
5, 21133, Note_on_c, 3, 55, 0
5, 21145, Note_on_c, 3, 64, 0
5, 21148, Note_on_c, 3, 60, 0
5, 21294, Note_on_c, 3, 88, 87
5, 21299, Note_on_c, 3, 84, 90
5, 21302, Note_on_c, 3, 79, 92
5, 21302, Note_on_c, 3, 76, 83
5, 21309, Note_on_c, 3, 64, 68
5, 21310, Note_on_c, 3, 60, 72
5, 21311, Note_on_c, 3, 55, 76
5, 21575, Control_c, 3, 64, 127
5, 21595, Note_on_c, 3, 88, 0
5, 21617, Note_on_c, 3, 79, 0
5, 21619, Note_on_c, 3, 84, 0
5, 21631, Note_on_c, 3, 76, 0
5, 21653, Note_on_c, 3, 64, 0
5, 21660, Note_on_c, 3, 55, 0
5, 21664, Note_on_c, 3, 60, 0
5, 21776, Note_on_c, 3, 84, 84
5, 21778, Note_on_c, 3, 79, 78
5, 21779, Note_on_c, 3, 60, 52
5, 21782, Note_on_c, 3, 76, 73
5, 21782, Note_on_c, 3, 55, 48
5, 21785, Note_on_c, 3, 64, 56
5, 21843, Note_on_c, 3, 60, 0
5, 21854, Note_on_c, 3, 79, 0
5, 21860, Note_on_c, 3, 55, 0
5, 21862, Note_on_c, 3, 84, 0
5, 21862, Note_on_c, 3, 76, 0
5, 21865, Note_on_c, 3, 64, 0
5, 21996, Note_on_c, 3, 86, 80
5, 22001, Note_on_c, 3, 83, 83
5, 22002, Note_on_c, 3, 77, 82
5, 22004, Note_on_c, 3, 74, 73
5, 22010, Control_c, 3, 64, 0
5, 22016, Note_on_c, 3, 55, 52
5, 22016, Note_on_c, 3, 59, 48
5, 22018, Note_on_c, 3, 62, 45
5, 22024, Note_on_c, 3, 53, 40
5, 22059, Note_on_c, 3, 74, 0
5, 22062, Note_on_c, 3, 77, 0
5, 22064, Note_on_c, 3, 83, 0
5, 22067, Note_on_c, 3, 86, 0
5, 22087, Note_on_c, 3, 59, 0
5, 22094, Note_on_c, 3, 53, 0
5, 22094, Note_on_c, 3, 62, 0
5, 22099, Note_on_c, 3, 55, 0
5, 22240, Note_on_c, 3, 86, 86
5, 22243, Note_on_c, 3, 74, 79
5, 22243, Note_on_c, 3, 83, 87
5, 22245, Note_on_c, 3, 77, 88
5, 22251, Note_on_c, 3, 62, 73
5, 22251, Note_on_c, 3, 53, 67
5, 22253, Note_on_c, 3, 55, 70
5, 22253, Note_on_c, 3, 59, 76
5, 22518, Control_c, 3, 64, 127
5, 22591, Note_on_c, 3, 74, 0
5, 22595, Note_on_c, 3, 83, 0
5, 22597, Note_on_c, 3, 77, 0
5, 22598, Note_on_c, 3, 86, 0
5, 22608, Note_on_c, 3, 53, 0
5, 22614, Note_on_c, 3, 55, 0
5, 22617, Note_on_c, 3, 62, 0
5, 22618, Note_on_c, 3, 59, 0
5, 22718, Note_on_c, 3, 77, 72
5, 22718, Note_on_c, 3, 83, 77
5, 22721, Note_on_c, 3, 86, 70
5, 22723, Note_on_c, 3, 74, 63
5, 22729, Note_on_c, 3, 59, 72
5, 22733, Note_on_c, 3, 62, 67
5, 22733, Note_on_c, 3, 55, 68
5, 22734, Note_on_c, 3, 53, 61
5, 22787, Note_on_c, 3, 74, 0
5, 22792, Note_on_c, 3, 77, 0
5, 22804, Note_on_c, 3, 83, 0
5, 22805, Note_on_c, 3, 86, 0
5, 22815, Note_on_c, 3, 62, 0
5, 22816, Note_on_c, 3, 55, 0
5, 22817, Note_on_c, 3, 59, 0
5, 22818, Note_on_c, 3, 53, 0
5, 22943, Note_on_c, 3, 88, 87
5, 22944, Note_on_c, 3, 84, 88
5, 22948, Note_on_c, 3, 79, 92
5, 22950, Note_on_c, 3, 76, 85
5, 22954, Note_on_c, 3, 55, 74
5, 22954, Note_on_c, 3, 64, 74
5, 22957, Note_on_c, 3, 60, 78
5, 22958, Control_c, 3, 64, 0
5, 23004, Note_on_c, 3, 76, 0
5, 23006, Note_on_c, 3, 79, 0
5, 23013, Note_on_c, 3, 88, 0
5, 23014, Note_on_c, 3, 84, 0
5, 23029, Note_on_c, 3, 64, 0
5, 23033, Note_on_c, 3, 60, 0
5, 23036, Note_on_c, 3, 55, 0
5, 23188, Note_on_c, 3, 88, 87
5, 23191, Note_on_c, 3, 84, 88
5, 23192, Note_on_c, 3, 76, 85
5, 23193, Note_on_c, 3, 79, 92
5, 23205, Note_on_c, 3, 64, 82
5, 23207, Note_on_c, 3, 55, 82
5, 23207, Note_on_c, 3, 60, 82
5, 23462, Control_c, 3, 64, 127
5, 23512, Note_on_c, 3, 76, 0
5, 23515, Note_on_c, 3, 88, 0
5, 23521, Note_on_c, 3, 79, 0
5, 23526, Note_on_c, 3, 84, 0
5, 23532, Note_on_c, 3, 55, 0
5, 23558, Note_on_c, 3, 60, 0
5, 23560, Note_on_c, 3, 64, 0
5, 23656, Note_on_c, 3, 76, 69
5, 23659, Note_on_c, 3, 84, 80
5, 23660, Note_on_c, 3, 79, 80
5, 23664, Note_on_c, 3, 60, 56
5, 23667, Note_on_c, 3, 55, 56
5, 23667, Note_on_c, 3, 64, 48
5, 23733, Note_on_c, 3, 76, 0
5, 23736, Note_on_c, 3, 79, 0
5, 23744, Note_on_c, 3, 84, 0
5, 23753, Note_on_c, 3, 55, 0
5, 23755, Note_on_c, 3, 64, 0
5, 23762, Note_on_c, 3, 60, 0
5, 23880, Note_on_c, 3, 84, 90
5, 23881, Note_on_c, 3, 88, 89
5, 23884, Note_on_c, 3, 79, 90
5, 23884, Note_on_c, 3, 76, 77
5, 23890, Note_on_c, 3, 60, 70
5, 23890, Note_on_c, 3, 64, 68
5, 23891, Note_on_c, 3, 55, 66
5, 23940, Note_on_c, 3, 79, 0
5, 23941, Note_on_c, 3, 76, 0
5, 23947, Note_on_c, 3, 84, 0
5, 23954, Note_on_c, 3, 88, 0
5, 23961, Note_on_c, 3, 60, 0
5, 23962, Note_on_c, 3, 55, 0
5, 23966, Note_on_c, 3, 64, 0
5, 24103, Note_on_c, 3, 88, 81
5, 24107, Note_on_c, 3, 84, 86
5, 24111, Note_on_c, 3, 76, 81
5, 24113, Note_on_c, 3, 79, 88
5, 24122, Note_on_c, 3, 55, 74
5, 24123, Note_on_c, 3, 64, 72
5, 24124, Note_on_c, 3, 60, 76
5, 24137, Control_c, 3, 64, 0
5, 24380, Control_c, 3, 64, 127
5, 24403, Note_on_c, 3, 79, 0
5, 24411, Note_on_c, 3, 76, 0
5, 24414, Note_on_c, 3, 84, 0
5, 24417, Note_on_c, 3, 88, 0
5, 24431, Note_on_c, 3, 55, 0
5, 24434, Note_on_c, 3, 60, 0
5, 24439, Note_on_c, 3, 64, 0
5, 24565, Note_on_c, 3, 79, 76
5, 24565, Note_on_c, 3, 84, 74
5, 24568, Note_on_c, 3, 76, 63
5, 24574, Note_on_c, 3, 60, 60
5, 24575, Note_on_c, 3, 64, 56
5, 24576, Note_on_c, 3, 55, 58
5, 24581, Control_c, 3, 64, 0
5, 24628, Note_on_c, 3, 76, 0
5, 24629, Note_on_c, 3, 84, 0
5, 24631, Note_on_c, 3, 79, 0
5, 24651, Note_on_c, 3, 64, 0
5, 24653, Note_on_c, 3, 55, 0
5, 24653, Note_on_c, 3, 60, 0
5, 24792, Note_on_c, 3, 84, 86
5, 24795, Note_on_c, 3, 88, 85
5, 24796, Note_on_c, 3, 76, 79
5, 24799, Note_on_c, 3, 79, 86
5, 24800, Note_on_c, 3, 60, 62
5, 24803, Note_on_c, 3, 64, 58
5, 24805, Note_on_c, 3, 55, 64
5, 24842, Note_on_c, 3, 79, 0
5, 24846, Note_on_c, 3, 76, 0
5, 24846, Note_on_c, 3, 88, 0
5, 24847, Note_on_c, 3, 84, 0
5, 24863, Note_on_c, 3, 60, 0
5, 24867, Note_on_c, 3, 55, 0
5, 24868, Note_on_c, 3, 64, 0
5, 25023, Note_on_c, 3, 88, 87
5, 25027, Note_on_c, 3, 84, 90
5, 25028, Note_on_c, 3, 79, 94
5, 25029, Note_on_c, 3, 76, 83
5, 25039, Note_on_c, 3, 55, 76
5, 25042, Note_on_c, 3, 60, 76
5, 25042, Note_on_c, 3, 64, 72
5, 25292, Control_c, 3, 64, 127
5, 25323, Note_on_c, 3, 84, 0
5, 25339, Note_on_c, 3, 88, 0
5, 25348, Note_on_c, 3, 79, 0
5, 25359, Note_on_c, 3, 55, 0
5, 25367, Note_on_c, 3, 64, 0
5, 25368, Note_on_c, 3, 76, 0
5, 25372, Note_on_c, 3, 60, 0
5, 25495, Note_on_c, 3, 79, 76
5, 25495, Note_on_c, 3, 84, 78
5, 25498, Note_on_c, 3, 60, 50
5, 25498, Note_on_c, 3, 76, 71
5, 25500, Note_on_c, 3, 55, 40
5, 25502, Note_on_c, 3, 64, 54
5, 25544, Note_on_c, 3, 84, 0
5, 25549, Note_on_c, 3, 79, 0
5, 25558, Note_on_c, 3, 60, 0
5, 25560, Note_on_c, 3, 55, 0
5, 25564, Note_on_c, 3, 76, 0
5, 25567, Note_on_c, 3, 64, 0
5, 25738, Note_on_c, 3, 77, 88
5, 25738, Note_on_c, 3, 79, 90
5, 25739, Note_on_c, 3, 83, 93
5, 25741, Note_on_c, 3, 74, 77
5, 25747, Note_on_c, 3, 53, 59
5, 25750, Note_on_c, 3, 62, 71
5, 25750, Note_on_c, 3, 55, 70
5, 25750, Note_on_c, 3, 59, 66
5, 25751, Control_c, 3, 64, 0
5, 25980, Control_c, 3, 64, 127
5, 26016, Note_on_c, 3, 79, 0
5, 26022, Note_on_c, 3, 83, 0
5, 26026, Note_on_c, 3, 77, 0
5, 26030, Note_on_c, 3, 74, 0
5, 26054, Note_on_c, 3, 53, 0
5, 26055, Note_on_c, 3, 62, 0
5, 26060, Note_on_c, 3, 55, 0
5, 26060, Note_on_c, 3, 59, 0
5, 26215, Note_on_c, 3, 77, 82
5, 26218, Note_on_c, 3, 74, 71
5, 26218, Note_on_c, 3, 79, 86
5, 26220, Note_on_c, 3, 83, 89
5, 26226, Note_on_c, 3, 59, 44
5, 26228, Note_on_c, 3, 62, 51
5, 26228, Note_on_c, 3, 55, 45
5, 26228, Note_on_c, 3, 53, 42
5, 26354, Note_on_c, 3, 59, 0
5, 26362, Note_on_c, 3, 62, 0
5, 26372, Note_on_c, 3, 74, 0
5, 26373, Note_on_c, 3, 55, 0
5, 26378, Note_on_c, 3, 77, 0
5, 26381, Note_on_c, 3, 79, 0
5, 26383, Note_on_c, 3, 53, 0
5, 26396, Note_on_c, 3, 83, 0
5, 26658, Control_c, 3, 64, 0
5, 26670, Note_on_c, 3, 84, 90
5, 26678, Note_on_c, 3, 76, 89
5, 26680, Note_on_c, 3, 72, 78
5, 26681, Note_on_c, 3, 55, 60
5, 26685, Note_on_c, 3, 60, 56
5, 26685, Note_on_c, 3, 52, 47
5, 26722, Note_on_c, 3, 72, 0
5, 26724, Note_on_c, 3, 76, 0
5, 26725, Note_on_c, 3, 84, 0
5, 26758, Note_on_c, 3, 60, 0
5, 26758, Note_on_c, 3, 52, 0
5, 26759, Note_on_c, 3, 55, 0
5, 26891, Note_on_c, 3, 84, 76
5, 26894, Note_on_c, 3, 76, 83
5, 26901, Note_on_c, 3, 72, 68
5, 26905, Note_on_c, 3, 55, 66
5, 26907, Note_on_c, 3, 60, 56
5, 26907, Note_on_c, 3, 52, 51
5, 26942, Note_on_c, 3, 84, 0
5, 26943, Note_on_c, 3, 72, 0
5, 26945, Note_on_c, 3, 76, 0
5, 26969, Note_on_c, 3, 60, 0
5, 26969, Note_on_c, 3, 52, 0
5, 26972, Note_on_c, 3, 55, 0
5, 27128, Note_on_c, 3, 84, 90
5, 27135, Note_on_c, 3, 76, 91
5, 27136, Note_on_c, 3, 72, 84
5, 27137, Note_on_c, 3, 55, 82
5, 27140, Note_on_c, 3, 60, 70
5, 27141, Note_on_c, 3, 52, 73
5, 27649, Note_on_c, 3, 76, 0
5, 27650, Note_on_c, 3, 72, 0
5, 27655, Note_on_c, 3, 84, 0
5, 27672, Note_on_c, 3, 60, 0
5, 27673, Note_on_c, 3, 52, 0
5, 27675, Note_on_c, 3, 55, 0
5, 28334, Control_c, 3, 127, 0
5, 28335, Control_c, 3, 127, 0
5, 28344, Control_c, 3, 64, 0
5, 28344, Control_c, 3, 64, 0
5, 28353, Control_c, 3, 10, 64
5, 28353, Pitch_bend_c, 3, 8192
5, 28353, Control_c, 3, 121, 0
5, 28353, End_track
6, 0, Start_track
6, 0, MIDI_port, 0
6, 0, Title_t, "Drums"
6, 431, Program_c, 9, 0
6, 432, Control_c, 9, 7, 127
6, 432, Control_c, 9, 10, 63
6, 1537, Note_on_c, 9, 75, 118
6, 1537, Note_on_c, 9, 36, 117
6, 1630, Note_on_c, 9, 75, 0
6, 1694, Note_on_c, 9, 36, 0
6, 1768, Note_on_c, 9, 38, 119
6, 1768, Note_on_c, 9, 40, 117
6, 1783, Note_on_c, 9, 75, 118
6, 1832, Note_on_c, 9, 75, 0
6, 1892, Note_on_c, 9, 75, 109
6, 1898, Note_on_c, 9, 38, 0
6, 1902, Note_on_c, 9, 40, 0
6, 1962, Note_on_c, 9, 75, 0
6, 2007, Note_on_c, 9, 76, 118
6, 2007, Note_on_c, 9, 36, 111
6, 2112, Note_on_c, 9, 76, 0
6, 2154, Note_on_c, 9, 36, 0
6, 2238, Note_on_c, 9, 38, 119
6, 2240, Note_on_c, 9, 76, 109
6, 2241, Note_on_c, 9, 40, 119
6, 2308, Note_on_c, 9, 76, 0
6, 2366, Note_on_c, 9, 40, 0
6, 2368, Note_on_c, 9, 76, 113
6, 2369, Note_on_c, 9, 38, 0
6, 2442, Note_on_c, 9, 76, 0
6, 2471, Note_on_c, 9, 36, 117
6, 2481, Note_on_c, 9, 75, 118
6, 2558, Note_on_c, 9, 75, 0
6, 2622, Note_on_c, 9, 36, 0
6, 2682, Note_on_c, 9, 38, 122
6, 2686, Note_on_c, 9, 40, 121
6, 2692, Note_on_c, 9, 75, 115
6, 2740, Note_on_c, 9, 75, 0
6, 2804, Note_on_c, 9, 75, 109
6, 2826, Note_on_c, 9, 38, 0
6, 2827, Note_on_c, 9, 40, 0
6, 2874, Note_on_c, 9, 75, 0
6, 2922, Note_on_c, 9, 61, 118
6, 2922, Note_on_c, 9, 36, 119
6, 3006, Note_on_c, 9, 61, 0
6, 3076, Note_on_c, 9, 36, 0
6, 3153, Note_on_c, 9, 38, 121
6, 3155, Note_on_c, 9, 40, 121
6, 3162, Note_on_c, 9, 61, 115
6, 3217, Note_on_c, 9, 61, 0
6, 3268, Note_on_c, 9, 61, 113
6, 3274, Note_on_c, 9, 38, 0
6, 3281, Note_on_c, 9, 40, 0
6, 3328, Note_on_c, 9, 61, 0
6, 3383, Note_on_c, 9, 75, 118
6, 3399, Note_on_c, 9, 36, 115
6, 3469, Note_on_c, 9, 75, 0
6, 3562, Note_on_c, 9, 36, 0
6, 3633, Note_on_c, 9, 75, 115
6, 3633, Note_on_c, 9, 38, 122
6, 3635, Note_on_c, 9, 40, 121
6, 3687, Note_on_c, 9, 75, 0
6, 3751, Note_on_c, 9, 75, 113
6, 3770, Note_on_c, 9, 38, 0
6, 3774, Note_on_c, 9, 40, 0
6, 3825, Note_on_c, 9, 75, 0
6, 3866, Note_on_c, 9, 76, 121
6, 3872, Note_on_c, 9, 36, 117
6, 3949, Note_on_c, 9, 76, 0
6, 4032, Note_on_c, 9, 36, 0
6, 4113, Note_on_c, 9, 38, 121
6, 4113, Note_on_c, 9, 40, 121
6, 4119, Note_on_c, 9, 76, 115
6, 4183, Note_on_c, 9, 76, 0
6, 4218, Note_on_c, 9, 38, 0
6, 4222, Note_on_c, 9, 40, 0
6, 4224, Note_on_c, 9, 76, 109
6, 4288, Note_on_c, 9, 76, 0
6, 4333, Note_on_c, 9, 75, 118
6, 4350, Note_on_c, 9, 36, 113
6, 4429, Note_on_c, 9, 75, 0
6, 4499, Note_on_c, 9, 36, 0
6, 4563, Note_on_c, 9, 75, 115
6, 4565, Note_on_c, 9, 38, 122
6, 4565, Note_on_c, 9, 40, 121
6, 4612, Note_on_c, 9, 75, 0
6, 4666, Note_on_c, 9, 38, 0
6, 4676, Note_on_c, 9, 40, 0
6, 4676, Note_on_c, 9, 75, 107
6, 4746, Note_on_c, 9, 75, 0
6, 4798, Note_on_c, 9, 49, 121
6, 4798, Note_on_c, 9, 61, 121
6, 4813, Note_on_c, 9, 36, 119
6, 4871, Note_on_c, 9, 61, 0
6, 4958, Note_on_c, 9, 36, 0
6, 5043, Note_on_c, 9, 38, 122
6, 5046, Note_on_c, 9, 40, 121
6, 5149, Note_on_c, 9, 38, 0
6, 5155, Note_on_c, 9, 40, 0
6, 5274, Note_on_c, 9, 75, 115
6, 5289, Note_on_c, 9, 36, 117
6, 5366, Note_on_c, 9, 75, 0
6, 5447, Note_on_c, 9, 36, 0
6, 5501, Note_on_c, 9, 75, 115
6, 5511, Note_on_c, 9, 38, 121
6, 5511, Note_on_c, 9, 40, 122
6, 5549, Note_on_c, 9, 75, 0
6, 5603, Note_on_c, 9, 38, 0
6, 5613, Note_on_c, 9, 40, 0
6, 5626, Note_on_c, 9, 75, 107
6, 5703, Note_on_c, 9, 75, 0
6, 5737, Note_on_c, 9, 36, 117
6, 5750, Note_on_c, 9, 76, 118
6, 5811, Note_on_c, 9, 76, 0
6, 5882, Note_on_c, 9, 36, 0
6, 5965, Note_on_c, 9, 38, 119
6, 5967, Note_on_c, 9, 40, 121
6, 5987, Note_on_c, 9, 76, 115
6, 6038, Note_on_c, 9, 49, 0
6, 6039, Note_on_c, 9, 76, 0
6, 6061, Note_on_c, 9, 38, 0
6, 6063, Note_on_c, 9, 40, 0
6, 6089, Note_on_c, 9, 76, 113
6, 6151, Note_on_c, 9, 76, 0
6, 6202, Note_on_c, 9, 75, 118
6, 6202, Note_on_c, 9, 36, 113
6, 6287, Note_on_c, 9, 75, 0
6, 6332, Note_on_c, 9, 36, 0
6, 6428, Note_on_c, 9, 38, 119
6, 6430, Note_on_c, 9, 40, 117
6, 6432, Note_on_c, 9, 75, 115
6, 6486, Note_on_c, 9, 75, 0
6, 6535, Note_on_c, 9, 40, 0
6, 6541, Note_on_c, 9, 38, 0
6, 6550, Note_on_c, 9, 75, 109
6, 6643, Note_on_c, 9, 75, 0
6, 6663, Note_on_c, 9, 36, 113
6, 6669, Note_on_c, 9, 61, 121
6, 6742, Note_on_c, 9, 61, 0
6, 6810, Note_on_c, 9, 36, 0
6, 6887, Note_on_c, 9, 38, 122
6, 6889, Note_on_c, 9, 40, 122
6, 6893, Note_on_c, 9, 61, 118
6, 6944, Note_on_c, 9, 61, 0
6, 6991, Note_on_c, 9, 38, 0
6, 6995, Note_on_c, 9, 40, 0
6, 7017, Note_on_c, 9, 61, 118
6, 7081, Note_on_c, 9, 61, 0
6, 7130, Note_on_c, 9, 75, 115
6, 7130, Note_on_c, 9, 36, 117
6, 7207, Note_on_c, 9, 75, 0
6, 7260, Note_on_c, 9, 36, 0
6, 7343, Note_on_c, 9, 38, 122
6, 7345, Note_on_c, 9, 40, 122
6, 7350, Note_on_c, 9, 75, 113
6, 7405, Note_on_c, 9, 75, 0
6, 7446, Note_on_c, 9, 38, 0
6, 7447, Note_on_c, 9, 40, 0
6, 7471, Note_on_c, 9, 75, 113
6, 7546, Note_on_c, 9, 75, 0
6, 7580, Note_on_c, 9, 36, 115
6, 7587, Note_on_c, 9, 76, 115
6, 7655, Note_on_c, 9, 76, 0
6, 7712, Note_on_c, 9, 36, 0
6, 7804, Note_on_c, 9, 38, 121
6, 7808, Note_on_c, 9, 40, 121
6, 7823, Note_on_c, 9, 76, 113
6, 7881, Note_on_c, 9, 76, 0
6, 7907, Note_on_c, 9, 40, 0
6, 7907, Note_on_c, 9, 38, 0
6, 7945, Note_on_c, 9, 76, 115
6, 8009, Note_on_c, 9, 76, 0
6, 8050, Note_on_c, 9, 36, 113
6, 8054, Note_on_c, 9, 75, 118
6, 8140, Note_on_c, 9, 75, 0
6, 8175, Note_on_c, 9, 36, 0
6, 8268, Note_on_c, 9, 38, 122
6, 8271, Note_on_c, 9, 40, 121
6, 8291, Note_on_c, 9, 75, 113
6, 8335, Note_on_c, 9, 75, 0
6, 8361, Note_on_c, 9, 38, 0
6, 8367, Note_on_c, 9, 40, 0
6, 8409, Note_on_c, 9, 75, 109
6, 8483, Note_on_c, 9, 75, 0
6, 8518, Note_on_c, 9, 61, 118
6, 8530, Note_on_c, 9, 36, 113
6, 8581, Note_on_c, 9, 61, 0
6, 8665, Note_on_c, 9, 36, 0
6, 8758, Note_on_c, 9, 61, 113
6, 8758, Note_on_c, 9, 38, 122
6, 8761, Note_on_c, 9, 40, 122
6, 8822, Note_on_c, 9, 61, 0
6, 8860, Note_on_c, 9, 38, 0
6, 8863, Note_on_c, 9, 40, 0
6, 8870, Note_on_c, 9, 61, 109
6, 8934, Note_on_c, 9, 61, 0
6, 8982, Note_on_c, 9, 75, 115
6, 9010, Note_on_c, 9, 36, 111
6, 9078, Note_on_c, 9, 75, 0
6, 9151, Note_on_c, 9, 36, 0
6, 9219, Note_on_c, 9, 75, 113
6, 9219, Note_on_c, 9, 38, 119
6, 9221, Note_on_c, 9, 40, 121
6, 9283, Note_on_c, 9, 75, 0
6, 9321, Note_on_c, 9, 38, 0
6, 9324, Note_on_c, 9, 40, 0
6, 9340, Note_on_c, 9, 75, 115
6, 9426, Note_on_c, 9, 75, 0
6, 9455, Note_on_c, 9, 76, 115
6, 9462, Note_on_c, 9, 36, 111
6, 9522, Note_on_c, 9, 76, 0
6, 9596, Note_on_c, 9, 36, 0
6, 9682, Note_on_c, 9, 38, 121
6, 9686, Note_on_c, 9, 40, 122
6, 9688, Note_on_c, 9, 76, 115
6, 9750, Note_on_c, 9, 76, 0
6, 9778, Note_on_c, 9, 38, 0
6, 9782, Note_on_c, 9, 40, 0
6, 9810, Note_on_c, 9, 76, 115
6, 9871, Note_on_c, 9, 76, 0
6, 9932, Note_on_c, 9, 75, 118
6, 9933, Note_on_c, 9, 36, 115
6, 10021, Note_on_c, 9, 75, 0
6, 10070, Note_on_c, 9, 36, 0
6, 10134, Note_on_c, 9, 38, 121
6, 10136, Note_on_c, 9, 40, 122
6, 10162, Note_on_c, 9, 75, 113
6, 10217, Note_on_c, 9, 38, 0
6, 10223, Note_on_c, 9, 75, 0
6, 10223, Note_on_c, 9, 40, 0
6, 10281, Note_on_c, 9, 75, 109
6, 10373, Note_on_c, 9, 75, 0
6, 10383, Note_on_c, 9, 36, 115
6, 10392, Note_on_c, 9, 61, 121
6, 10460, Note_on_c, 9, 61, 0
6, 10531, Note_on_c, 9, 36, 0
6, 10614, Note_on_c, 9, 38, 121
6, 10614, Note_on_c, 9, 40, 117
6, 10639, Note_on_c, 9, 61, 118
6, 10687, Note_on_c, 9, 40, 0
6, 10688, Note_on_c, 9, 38, 0
6, 10691, Note_on_c, 9, 61, 0
6, 10751, Note_on_c, 9, 61, 118
6, 10808, Note_on_c, 9, 61, 0
6, 10866, Note_on_c, 9, 36, 113
6, 10870, Note_on_c, 9, 75, 121
6, 10956, Note_on_c, 9, 75, 0
6, 11004, Note_on_c, 9, 36, 0
6, 11084, Note_on_c, 9, 75, 113
6, 11084, Note_on_c, 9, 38, 119
6, 11085, Note_on_c, 9, 40, 115
6, 11141, Note_on_c, 9, 75, 0
6, 11170, Note_on_c, 9, 38, 0
6, 11171, Note_on_c, 9, 40, 0
6, 11195, Note_on_c, 9, 75, 104
6, 11285, Note_on_c, 9, 75, 0
6, 11304, Note_on_c, 9, 76, 118
6, 11320, Note_on_c, 9, 36, 113
6, 11381, Note_on_c, 9, 76, 0
6, 11461, Note_on_c, 9, 36, 0
6, 11544, Note_on_c, 9, 38, 117
6, 11545, Note_on_c, 9, 40, 115
6, 11547, Note_on_c, 9, 76, 113
6, 11602, Note_on_c, 9, 76, 0
6, 11630, Note_on_c, 9, 38, 0
6, 11634, Note_on_c, 9, 40, 0
6, 11660, Note_on_c, 9, 76, 109
6, 11717, Note_on_c, 9, 76, 0
6, 11765, Note_on_c, 9, 75, 115
6, 11781, Note_on_c, 9, 36, 115
6, 11839, Note_on_c, 9, 75, 0
6, 11909, Note_on_c, 9, 36, 0
6, 11995, Note_on_c, 9, 75, 109
6, 12012, Note_on_c, 9, 38, 119
6, 12014, Note_on_c, 9, 40, 115
6, 12050, Note_on_c, 9, 75, 0
6, 12101, Note_on_c, 9, 38, 0
6, 12104, Note_on_c, 9, 40, 0
6, 12127, Note_on_c, 9, 75, 107
6, 12210, Note_on_c, 9, 75, 0
6, 12245, Note_on_c, 9, 49, 121
6, 12246, Note_on_c, 9, 61, 124
6, 12257, Note_on_c, 9, 36, 117
6, 12334, Note_on_c, 9, 61, 0
6, 12396, Note_on_c, 9, 36, 0
6, 12492, Note_on_c, 9, 38, 122
6, 12492, Note_on_c, 9, 40, 121
6, 12581, Note_on_c, 9, 38, 0
6, 12584, Note_on_c, 9, 40, 0
6, 12725, Note_on_c, 9, 75, 118
6, 12735, Note_on_c, 9, 36, 117
6, 12850, Note_on_c, 9, 75, 0
6, 12863, Note_on_c, 9, 36, 0
6, 12968, Note_on_c, 9, 75, 113
6, 12974, Note_on_c, 9, 38, 121
6, 12975, Note_on_c, 9, 40, 121
6, 13016, Note_on_c, 9, 75, 0
6, 13061, Note_on_c, 9, 38, 0
6, 13068, Note_on_c, 9, 40, 0
6, 13087, Note_on_c, 9, 75, 97
6, 13157, Note_on_c, 9, 75, 0
6, 13198, Note_on_c, 9, 36, 113
6, 13211, Note_on_c, 9, 76, 115
6, 13279, Note_on_c, 9, 76, 0
6, 13330, Note_on_c, 9, 36, 0
6, 13416, Note_on_c, 9, 38, 122
6, 13420, Note_on_c, 9, 40, 119
6, 13441, Note_on_c, 9, 76, 113
6, 13486, Note_on_c, 9, 76, 0
6, 13505, Note_on_c, 9, 38, 0
6, 13509, Note_on_c, 9, 40, 0
6, 13544, Note_on_c, 9, 76, 109
6, 13580, Note_on_c, 9, 49, 0
6, 13599, Note_on_c, 9, 76, 0
6, 13656, Note_on_c, 9, 36, 115
6, 13663, Note_on_c, 9, 75, 115
6, 13755, Note_on_c, 9, 75, 0
6, 13784, Note_on_c, 9, 36, 0
6, 13883, Note_on_c, 9, 38, 121
6, 13884, Note_on_c, 9, 40, 117
6, 13893, Note_on_c, 9, 75, 107
6, 13951, Note_on_c, 9, 75, 0
6, 13970, Note_on_c, 9, 38, 0
6, 13975, Note_on_c, 9, 40, 0
6, 14014, Note_on_c, 9, 75, 113
6, 14097, Note_on_c, 9, 75, 0
6, 14116, Note_on_c, 9, 36, 113
6, 14139, Note_on_c, 9, 61, 118
6, 14219, Note_on_c, 9, 61, 0
6, 14244, Note_on_c, 9, 36, 0
6, 14344, Note_on_c, 9, 38, 121
6, 14347, Note_on_c, 9, 40, 119
6, 14363, Note_on_c, 9, 61, 115
6, 14417, Note_on_c, 9, 61, 0
6, 14427, Note_on_c, 9, 38, 0
6, 14433, Note_on_c, 9, 40, 0
6, 14465, Note_on_c, 9, 61, 113
6, 14536, Note_on_c, 9, 61, 0
6, 14581, Note_on_c, 9, 75, 115
6, 14600, Note_on_c, 9, 36, 115
6, 14679, Note_on_c, 9, 75, 0
6, 14718, Note_on_c, 9, 36, 0
6, 14814, Note_on_c, 9, 38, 121
6, 14817, Note_on_c, 9, 75, 115
6, 14818, Note_on_c, 9, 40, 121
6, 14871, Note_on_c, 9, 75, 0
6, 14901, Note_on_c, 9, 38, 0
6, 14907, Note_on_c, 9, 40, 0
6, 14933, Note_on_c, 9, 75, 102
6, 15009, Note_on_c, 9, 75, 0
6, 15054, Note_on_c, 9, 36, 117
6, 15061, Note_on_c, 9, 76, 118
6, 15131, Note_on_c, 9, 76, 0
6, 15176, Note_on_c, 9, 36, 0
6, 15268, Note_on_c, 9, 40, 122
6, 15272, Note_on_c, 9, 38, 121
6, 15291, Note_on_c, 9, 76, 115
6, 15349, Note_on_c, 9, 76, 0
6, 15349, Note_on_c, 9, 38, 0
6, 15355, Note_on_c, 9, 40, 0
6, 15400, Note_on_c, 9, 76, 113
6, 15464, Note_on_c, 9, 76, 0
6, 15502, Note_on_c, 9, 75, 115
6, 15511, Note_on_c, 9, 36, 117
6, 15592, Note_on_c, 9, 75, 0
6, 15643, Note_on_c, 9, 36, 0
6, 15729, Note_on_c, 9, 38, 122
6, 15733, Note_on_c, 9, 75, 113
6, 15733, Note_on_c, 9, 40, 119
6, 15786, Note_on_c, 9, 75, 0
6, 15818, Note_on_c, 9, 40, 0
6, 15825, Note_on_c, 9, 38, 0
6, 15854, Note_on_c, 9, 75, 109
6, 15931, Note_on_c, 9, 75, 0
6, 15963, Note_on_c, 9, 61, 118
6, 15969, Note_on_c, 9, 36, 111
6, 16042, Note_on_c, 9, 61, 0
6, 16097, Note_on_c, 9, 36, 0
6, 16196, Note_on_c, 9, 38, 122
6, 16200, Note_on_c, 9, 40, 119
6, 16213, Note_on_c, 9, 61, 113
6, 16270, Note_on_c, 9, 61, 0
6, 16286, Note_on_c, 9, 38, 0
6, 16289, Note_on_c, 9, 40, 0
6, 16315, Note_on_c, 9, 61, 115
6, 16392, Note_on_c, 9, 61, 0
6, 16430, Note_on_c, 9, 75, 118
6, 16446, Note_on_c, 9, 36, 115
6, 16552, Note_on_c, 9, 75, 0
6, 16590, Note_on_c, 9, 36, 0
6, 16670, Note_on_c, 9, 75, 113
6, 16673, Note_on_c, 9, 38, 119
6, 16673, Note_on_c, 9, 40, 121
6, 16725, Note_on_c, 9, 75, 0
6, 16753, Note_on_c, 9, 38, 0
6, 16757, Note_on_c, 9, 40, 0
6, 16798, Note_on_c, 9, 75, 113
6, 16878, Note_on_c, 9, 75, 0
6, 16894, Note_on_c, 9, 76, 118
6, 16895, Note_on_c, 9, 36, 115
6, 16983, Note_on_c, 9, 76, 0
6, 17028, Note_on_c, 9, 36, 0
6, 17127, Note_on_c, 9, 38, 119
6, 17128, Note_on_c, 9, 40, 122
6, 17143, Note_on_c, 9, 76, 113
6, 17210, Note_on_c, 9, 76, 0
6, 17211, Note_on_c, 9, 40, 0
6, 17214, Note_on_c, 9, 38, 0
6, 17267, Note_on_c, 9, 76, 113
6, 17338, Note_on_c, 9, 76, 0
6, 17374, Note_on_c, 9, 36, 115
6, 17380, Note_on_c, 9, 75, 118
6, 17466, Note_on_c, 9, 75, 0
6, 17517, Note_on_c, 9, 36, 0
6, 17598, Note_on_c, 9, 38, 121
6, 17600, Note_on_c, 9, 40, 121
6, 17623, Note_on_c, 9, 75, 113
6, 17674, Note_on_c, 9, 75, 0
6, 17681, Note_on_c, 9, 40, 0
6, 17681, Note_on_c, 9, 38, 0
6, 17735, Note_on_c, 9, 75, 109
6, 17815, Note_on_c, 9, 75, 0
6, 17844, Note_on_c, 9, 61, 118
6, 17845, Note_on_c, 9, 36, 113
6, 17911, Note_on_c, 9, 61, 0
6, 17975, Note_on_c, 9, 36, 0
6, 18071, Note_on_c, 9, 61, 115
6, 18071, Note_on_c, 9, 38, 122
6, 18074, Note_on_c, 9, 40, 121
6, 18125, Note_on_c, 9, 61, 0
6, 18183, Note_on_c, 9, 38, 0
6, 18184, Note_on_c, 9, 40, 0
6, 18206, Note_on_c, 9, 61, 115
6, 18266, Note_on_c, 9, 61, 0
6, 18314, Note_on_c, 9, 36, 111
6, 18330, Note_on_c, 9, 75, 115
6, 18413, Note_on_c, 9, 75, 0
6, 18442, Note_on_c, 9, 36, 0
6, 18535, Note_on_c, 9, 38, 122
6, 18536, Note_on_c, 9, 40, 119
6, 18547, Note_on_c, 9, 75, 113
6, 18602, Note_on_c, 9, 75, 0
6, 18634, Note_on_c, 9, 38, 0
6, 18637, Note_on_c, 9, 40, 0
6, 18666, Note_on_c, 9, 75, 102
6, 18743, Note_on_c, 9, 75, 0
6, 18771, Note_on_c, 9, 76, 118
6, 18773, Note_on_c, 9, 36, 115
6, 18848, Note_on_c, 9, 76, 0
6, 18916, Note_on_c, 9, 36, 0
6, 18995, Note_on_c, 9, 38, 122
6, 18999, Note_on_c, 9, 40, 121
6, 19018, Note_on_c, 9, 76, 115
6, 19079, Note_on_c, 9, 76, 0
6, 19095, Note_on_c, 9, 40, 0
6, 19095, Note_on_c, 9, 38, 0
6, 19130, Note_on_c, 9, 76, 107
6, 19198, Note_on_c, 9, 76, 0
6, 19232, Note_on_c, 9, 36, 113
6, 19255, Note_on_c, 9, 75, 118
6, 19332, Note_on_c, 9, 75, 0
6, 19360, Note_on_c, 9, 36, 0
6, 19456, Note_on_c, 9, 38, 119
6, 19457, Note_on_c, 9, 40, 117
6, 19466, Note_on_c, 9, 75, 113
6, 19520, Note_on_c, 9, 75, 0
6, 19556, Note_on_c, 9, 38, 0
6, 19559, Note_on_c, 9, 40, 0
6, 19584, Note_on_c, 9, 75, 109
6, 19661, Note_on_c, 9, 75, 0
6, 19687, Note_on_c, 9, 49, 118
6, 19693, Note_on_c, 9, 61, 124
6, 19697, Note_on_c, 9, 36, 115
6, 19780, Note_on_c, 9, 61, 0
6, 19831, Note_on_c, 9, 36, 0
6, 19923, Note_on_c, 9, 38, 121
6, 19925, Note_on_c, 9, 40, 117
6, 20010, Note_on_c, 9, 38, 0
6, 20017, Note_on_c, 9, 40, 0
6, 20154, Note_on_c, 9, 75, 118
6, 20160, Note_on_c, 9, 36, 117
6, 20256, Note_on_c, 9, 75, 0
6, 20301, Note_on_c, 9, 36, 0
6, 20387, Note_on_c, 9, 38, 122
6, 20391, Note_on_c, 9, 40, 119
6, 20397, Note_on_c, 9, 75, 115
6, 20445, Note_on_c, 9, 75, 0
6, 20474, Note_on_c, 9, 38, 0
6, 20477, Note_on_c, 9, 40, 0
6, 20515, Note_on_c, 9, 75, 102
6, 20595, Note_on_c, 9, 75, 0
6, 20621, Note_on_c, 9, 76, 113
6, 20624, Note_on_c, 9, 36, 117
6, 20685, Note_on_c, 9, 76, 0
6, 20765, Note_on_c, 9, 36, 0
6, 20854, Note_on_c, 9, 76, 115
6, 20861, Note_on_c, 9, 38, 122
6, 20864, Note_on_c, 9, 40, 121
6, 20912, Note_on_c, 9, 76, 0
6, 20947, Note_on_c, 9, 38, 0
6, 20954, Note_on_c, 9, 40, 0
6, 20979, Note_on_c, 9, 76, 113
6, 21043, Note_on_c, 9, 76, 0
6, 21084, Note_on_c, 9, 36, 113
6, 21088, Note_on_c, 9, 75, 118
6, 21127, Note_on_c, 9, 49, 0
6, 21178, Note_on_c, 9, 75, 0
6, 21235, Note_on_c, 9, 36, 0
6, 21308, Note_on_c, 9, 38, 119
6, 21312, Note_on_c, 9, 40, 115
6, 21325, Note_on_c, 9, 75, 115
6, 21376, Note_on_c, 9, 75, 0
6, 21402, Note_on_c, 9, 38, 0
6, 21404, Note_on_c, 9, 40, 0
6, 21447, Note_on_c, 9, 75, 113
6, 21536, Note_on_c, 9, 75, 0
6, 21543, Note_on_c, 9, 36, 113
6, 21558, Note_on_c, 9, 61, 118
6, 21632, Note_on_c, 9, 61, 0
6, 21696, Note_on_c, 9, 36, 0
6, 21773, Note_on_c, 9, 38, 119
6, 21773, Note_on_c, 9, 40, 115
6, 21788, Note_on_c, 9, 61, 113
6, 21846, Note_on_c, 9, 61, 0
6, 21863, Note_on_c, 9, 38, 0
6, 21865, Note_on_c, 9, 40, 0
6, 21895, Note_on_c, 9, 61, 109
6, 21965, Note_on_c, 9, 61, 0
6, 22006, Note_on_c, 9, 36, 117
6, 22010, Note_on_c, 9, 75, 115
6, 22125, Note_on_c, 9, 75, 0
6, 22172, Note_on_c, 9, 36, 0
6, 22230, Note_on_c, 9, 38, 121
6, 22234, Note_on_c, 9, 40, 117
6, 22259, Note_on_c, 9, 75, 115
6, 22313, Note_on_c, 9, 75, 0
6, 22314, Note_on_c, 9, 40, 0
6, 22314, Note_on_c, 9, 38, 0
6, 22375, Note_on_c, 9, 75, 104
6, 22460, Note_on_c, 9, 75, 0
6, 22473, Note_on_c, 9, 76, 118
6, 22479, Note_on_c, 9, 36, 117
6, 22547, Note_on_c, 9, 76, 0
6, 22627, Note_on_c, 9, 36, 0
6, 22710, Note_on_c, 9, 38, 119
6, 22714, Note_on_c, 9, 40, 117
6, 22727, Note_on_c, 9, 76, 113
6, 22791, Note_on_c, 9, 76, 0
6, 22803, Note_on_c, 9, 38, 0
6, 22806, Note_on_c, 9, 40, 0
6, 22844, Note_on_c, 9, 76, 113
6, 22925, Note_on_c, 9, 76, 0
6, 22957, Note_on_c, 9, 75, 118
6, 22957, Note_on_c, 9, 36, 115
6, 23052, Note_on_c, 9, 75, 0
6, 23094, Note_on_c, 9, 36, 0
6, 23180, Note_on_c, 9, 38, 121
6, 23181, Note_on_c, 9, 40, 117
6, 23190, Note_on_c, 9, 75, 113
6, 23254, Note_on_c, 9, 75, 0
6, 23286, Note_on_c, 9, 38, 0
6, 23289, Note_on_c, 9, 40, 0
6, 23314, Note_on_c, 9, 75, 109
6, 23410, Note_on_c, 9, 75, 0
6, 23423, Note_on_c, 9, 61, 115
6, 23424, Note_on_c, 9, 36, 115
6, 23506, Note_on_c, 9, 61, 0
6, 23564, Note_on_c, 9, 36, 0
6, 23644, Note_on_c, 9, 38, 117
6, 23647, Note_on_c, 9, 40, 115
6, 23663, Note_on_c, 9, 61, 118
6, 23721, Note_on_c, 9, 61, 0
6, 23740, Note_on_c, 9, 38, 0
6, 23750, Note_on_c, 9, 40, 0
6, 23785, Note_on_c, 9, 61, 115
6, 23862, Note_on_c, 9, 61, 0
6, 23894, Note_on_c, 9, 36, 119
6, 23897, Note_on_c, 9, 75, 115
6, 23996, Note_on_c, 9, 75, 0
6, 24047, Note_on_c, 9, 36, 0
6, 24120, Note_on_c, 9, 38, 121
6, 24122, Note_on_c, 9, 40, 117
6, 24127, Note_on_c, 9, 75, 102
6, 24188, Note_on_c, 9, 75, 0
6, 24204, Note_on_c, 9, 38, 0
6, 24207, Note_on_c, 9, 40, 0
6, 24248, Note_on_c, 9, 75, 109
6, 24332, Note_on_c, 9, 75, 0
6, 24351, Note_on_c, 9, 76, 118
6, 24352, Note_on_c, 9, 36, 117
6, 24412, Note_on_c, 9, 76, 0
6, 24485, Note_on_c, 9, 36, 0
6, 24562, Note_on_c, 9, 38, 122
6, 24566, Note_on_c, 9, 40, 121
6, 24575, Note_on_c, 9, 76, 115
6, 24630, Note_on_c, 9, 76, 0
6, 24655, Note_on_c, 9, 38, 0
6, 24658, Note_on_c, 9, 40, 0
6, 24700, Note_on_c, 9, 76, 115
6, 24760, Note_on_c, 9, 76, 0
6, 24803, Note_on_c, 9, 75, 118
6, 24805, Note_on_c, 9, 36, 111
6, 24895, Note_on_c, 9, 75, 0
6, 24933, Note_on_c, 9, 36, 0
6, 25027, Note_on_c, 9, 38, 119
6, 25029, Note_on_c, 9, 40, 117
6, 25036, Note_on_c, 9, 75, 113
6, 25093, Note_on_c, 9, 75, 0
6, 25132, Note_on_c, 9, 38, 0
6, 25133, Note_on_c, 9, 40, 0
6, 25157, Note_on_c, 9, 75, 113
6, 25244, Note_on_c, 9, 75, 0
6, 25279, Note_on_c, 9, 61, 118
6, 25280, Note_on_c, 9, 36, 115
6, 25353, Note_on_c, 9, 61, 0
6, 25423, Note_on_c, 9, 36, 0
6, 25494, Note_on_c, 9, 38, 122
6, 25496, Note_on_c, 9, 40, 119
6, 25509, Note_on_c, 9, 61, 115
6, 25567, Note_on_c, 9, 61, 0
6, 25605, Note_on_c, 9, 61, 107
6, 25618, Note_on_c, 9, 38, 0
6, 25622, Note_on_c, 9, 40, 0
6, 25682, Note_on_c, 9, 61, 0
6, 25731, Note_on_c, 9, 75, 118
6, 25737, Note_on_c, 9, 36, 113
6, 25833, Note_on_c, 9, 75, 0
6, 25884, Note_on_c, 9, 36, 0
6, 25964, Note_on_c, 9, 38, 122
6, 25967, Note_on_c, 9, 40, 121
6, 25983, Note_on_c, 9, 75, 113
6, 26030, Note_on_c, 9, 75, 0
6, 26079, Note_on_c, 9, 40, 0
6, 26085, Note_on_c, 9, 38, 0
6, 26092, Note_on_c, 9, 75, 104
6, 26175, Note_on_c, 9, 75, 0
6, 26203, Note_on_c, 9, 76, 118
6, 26204, Note_on_c, 9, 36, 117
6, 26284, Note_on_c, 9, 76, 0
6, 26360, Note_on_c, 9, 36, 0
6, 26446, Note_on_c, 9, 38, 121
6, 26450, Note_on_c, 9, 40, 119
6, 26459, Note_on_c, 9, 76, 113
6, 26517, Note_on_c, 9, 76, 0
6, 26549, Note_on_c, 9, 40, 0
6, 26552, Note_on_c, 9, 38, 0
6, 26581, Note_on_c, 9, 76, 115
6, 26642, Note_on_c, 9, 76, 0
6, 26690, Note_on_c, 9, 36, 115
6, 26693, Note_on_c, 9, 75, 115
6, 26779, Note_on_c, 9, 75, 0
6, 26828, Note_on_c, 9, 36, 0
6, 26911, Note_on_c, 9, 38, 122
6, 26911, Note_on_c, 9, 40, 121
6, 26917, Note_on_c, 9, 75, 113
6, 26971, Note_on_c, 9, 75, 0
6, 27020, Note_on_c, 9, 38, 0
6, 27022, Note_on_c, 9, 40, 0
6, 27029, Note_on_c, 9, 75, 97
6, 27116, Note_on_c, 9, 75, 0
6, 27141, Note_on_c, 9, 36, 115
6, 27144, Note_on_c, 9, 61, 121
6, 27145, Note_on_c, 9, 38, 119
6, 27148, Note_on_c, 9, 49, 118
6, 27148, Note_on_c, 9, 40, 119
6, 27192, Note_on_c, 9, 40, 0
6, 27199, Note_on_c, 9, 38, 0
6, 27212, Note_on_c, 9, 36, 0
6, 27214, Note_on_c, 9, 61, 0
6, 27676, Note_on_c, 9, 49, 0
6, 28337, Control_c, 9, 127, 0
6, 28347, Control_c, 9, 64, 0
6, 28347, End_track
7, 0, Start_track
7, 0, MIDI_port, 0
7, 0, Title_t, "www.wizard.net/~dsr"
7, 0, End_track
0, 0, End_of_file